<?xml version="1.0" encoding="UTF-8" standalone="no"?>
<!-- Created with Inkscape (http://www.inkscape.org/) -->

<svg
   xmlns:dc="http://purl.org/dc/elements/1.1/"
   xmlns:cc="http://creativecommons.org/ns#"
   xmlns:rdf="http://www.w3.org/1999/02/22-rdf-syntax-ns#"
   xmlns:svg="http://www.w3.org/2000/svg"
   xmlns="http://www.w3.org/2000/svg"
   xmlns:sodipodi="http://sodipodi.sourceforge.net/DTD/sodipodi-0.dtd"
   xmlns:inkscape="http://www.inkscape.org/namespaces/inkscape"
   width="64"
   height="64"
   viewBox="0 0 16.933333 16.933334"
   version="1.1"
   id="svg1519"
   sodipodi:docname="infected.svg"
   inkscape:version="0.92.4 (5da689c313, 2019-01-14)">
  <defs
     id="defs1513" />
  <sodipodi:namedview
     id="base"
     pagecolor="#ffffff"
     bordercolor="#666666"
     borderopacity="1.0"
     inkscape:pageopacity="0.0"
     inkscape:pageshadow="2"
     inkscape:zoom="1.4"
     inkscape:cx="58.225252"
     inkscape:cy="-125.78162"
     inkscape:document-units="mm"
     inkscape:current-layer="g2155"
     showgrid="false"
     units="px"
     inkscape:window-width="1600"
     inkscape:window-height="837"
     inkscape:window-x="-8"
     inkscape:window-y="-8"
     inkscape:window-maximized="1" />
  <metadata
     id="metadata1516">
    <rdf:RDF>
      <cc:Work
         rdf:about="">
        <dc:format>image/svg+xml</dc:format>
        <dc:type
           rdf:resource="http://purl.org/dc/dcmitype/StillImage" />
        <dc:title></dc:title>
      </cc:Work>
    </rdf:RDF>
  </metadata>
  <g
     inkscape:label="Layer 1"
     inkscape:groupmode="layer"
     id="layer1"
     transform="translate(0,-280.06665)">
    <g
       id="g2155"
       transform="matrix(0.84216363,0,0,0.84227826,0.13852676,45.355259)">
      <g
         id="g2166"
         style="fill:#ffffff;fill-opacity:1"
         transform="matrix(1.1132043,0,0,1.1132043,-1.119475,-69.051478)">
        <path
           d="m 11.863733,327.31696 a 0.28220067,0.28220067 0 0 0 -0.282201,0.2822 v 1.97541 a 0.28220075,0.28220075 0 0 0 0.564401,0 v -1.97541 a 0.28220067,0.28220067 0 0 0 -0.2822,-0.2822 z"
           id="path872"
           style="fill:#ffffff;fill-opacity:1;stroke-width:0.28220066"
           inkscape:connector-curvature="0" />
        <path
           d="m 6.4192346,318.20386 a 0.28220067,0.28220067 0 0 0 -0.399031,-0.39904 0.51670942,0.51670942 0 0 1 -0.729771,0 0.28220067,0.28220067 0 0 0 -0.399032,0.39904 1.0811108,1.0811108 0 0 0 1.527834,0 z"
           id="path886"
           style="fill:#ffffff;fill-opacity:1;stroke-width:0.28220066"
           inkscape:connector-curvature="0" />
        <path
           d="m 8.6768406,317.80482 a 0.28220067,0.28220067 0 0 0 -0.399032,0 0.51670942,0.51670942 0 0 1 -0.729771,0 0.28220067,0.28220067 0 0 0 -0.399032,0.39904 1.0811108,1.0811108 0 0 0 1.527835,0 0.28220067,0.28220067 0 0 0 0,-0.39904 z"
           id="path888"
           style="fill:#ffffff;fill-opacity:1;stroke-width:0.28220066"
           inkscape:connector-curvature="0" />
        <path
           d="m 6.1370346,320.46146 a 0.91630558,0.91630558 0 0 1 1.294172,0 0.28220067,0.28220067 0 0 0 0.399032,-0.39903 1.4812713,1.4812713 0 0 0 -2.092236,0 0.28220067,0.28220067 0 0 0 0.399032,0.39903 z"
           id="path890"
           style="fill:#ffffff;fill-opacity:1;stroke-width:0.28220066"
           inkscape:connector-curvature="0" />
        <path
           d="m 3.9621136,327.88136 a 0.28220067,0.28220067 0 0 0 -0.282201,0.2822 v 1.41101 a 0.282201,0.282201 0 0 0 0.564402,0 v -1.41101 a 0.28220067,0.28220067 0 0 0 -0.282201,-0.2822 z"
           id="path892"
           style="fill:#ffffff;fill-opacity:1;stroke-width:0.28220066"
           inkscape:connector-curvature="0" />
        <path
           d="m 15.62575,322.66085 a 0.27881427,0.27881427 0 0 0 0.25398,0.1411 0.28220067,0.28220067 0 0 0 0.243822,-0.15718 l 0.06124,-0.12501 a 0.26498643,0.26498643 0 0 1 0.261036,-0.15069 l 0.139124,0.009 a 0.27881427,0.27881427 0 0 0 0.299698,-0.26366 0.28220067,0.28220067 0 0 0 -0.263575,-0.2997 l -0.138843,-0.009 a 0.83954699,0.83954699 0 0 0 -0.625075,0.22329 1.9754047,1.9754047 0 0 0 -0.3155,-0.27542 l 0.004,-0.0683 a 0.27147705,0.27147705 0 0 1 0.200927,-0.24608 0.28220067,0.28220067 0 1 0 -0.146179,-0.54493 0.83305637,0.83305637 0 0 0 -0.5898,0.59262 1.9776623,1.9776623 0 0 0 -0.451521,-0.0881 0.27006603,0.27006603 0 0 1 0,-0.29998 l 0.07732,-0.11599 a 0.28223681,0.28223681 0 1 0 -0.469591,-0.31323 l -0.07732,0.11626 a 0.83164537,0.83164537 0 0 0 -0.116831,0.65301 1.9638344,1.9638344 0 0 0 -0.415682,0.14563 0.27063044,0.27063044 0 0 1 -0.149847,-0.26047 l 0.009,-0.13913 a 0.28277833,0.28277833 0 1 0 -0.564401,-0.0361 l -0.009,0.13885 a 0.83136317,0.83136317 0 0 0 0.22576,0.62564 q -0.06236,0.0564 -0.119371,0.11966 a 0.83446736,0.83446736 0 0 0 -0.625356,-0.22578 l -0.139125,0.009 a 0.28277874,0.28277874 0 0 0 0.03612,0.5644 l 0.139408,-0.009 a 0.27119485,0.27119485 0 0 1 0.260189,0.14986 1.9793555,1.9793555 0 0 0 -0.149284,0.43374 0.83305637,0.83305637 0 0 0 -0.808223,0.21419 0.28220067,0.28220067 0 0 0 0.399032,0.39903 0.27147705,0.27147705 0 0 1 0.313525,-0.0508 l 0.06039,0.0302 a 1.9536752,1.9536752 0 0 0 0.08748,0.4281 0.83277419,0.83277419 0 0 0 -0.592621,0.5898 0.28220067,0.28220067 0 1 0 0.544929,0.14617 0.27147705,0.27147705 0 0 1 0.246079,-0.20093 l 0.06914,-0.004 a 1.9960053,1.9960053 0 0 0 0.27825,0.31493 0.83136317,0.83136317 0 0 0 -0.22576,0.62536 l 0.009,0.13913 a 0.28220067,0.28220067 0 0 0 0.282201,0.26413 c 0.0062,0 0.01213,0 0.01835,0 a 0.28220067,0.28220067 0 0 0 0.263011,-0.3028 l -0.009,-0.1394 a 0.27034823,0.27034823 0 0 1 0.150131,-0.26019 1.9615768,1.9615768 0 0 0 0.690827,0.1857 0.27006603,0.27006603 0 0 1 0,0.29969 l -0.07732,0.116 a 0.2822358,0.2822358 0 0 0 0.469582,0.31324 l 0.07732,-0.11627 a 0.83051655,0.83051655 0 0 0 0.116832,-0.65358 1.9485956,1.9485956 0 0 0 0.415963,-0.14448 0.27063044,0.27063044 0 0 1 0.149566,0.26019 l -0.009,0.13913 a 0.28220067,0.28220067 0 0 0 0.263575,0.29969 c 0.0062,0 0.01213,0 0.01835,0 a 0.28220067,0.28220067 0 0 0 0.2822,-0.26414 l 0.009,-0.13883 a 0.83220978,0.83220978 0 0 0 -0.225776,-0.62448 c 0.04148,-0.0381 0.08099,-0.0782 0.118806,-0.11938 a 0.83164537,0.83164537 0 0 0 0.570045,0.22745 c 0.01806,0 0.03641,0 0.05475,-0.002 l 0.139124,-0.009 a 0.28277874,0.28277874 0 1 0 -0.03612,-0.5644 l -0.139407,0.009 a 0.26865503,0.26865503 0 0 1 -0.259343,-0.14872 1.9627057,1.9627057 0 0 0 0.186817,-0.69365 0.27147705,0.27147705 0 0 1 0.297722,0.003 l 0.115985,0.0773 a 0.2822358,0.2822358 0 1 0 0.313243,-0.46958 l -0.116267,-0.0773 a 0.83418516,0.83418516 0 0 0 -0.927311,0 l -0.116267,0.0773 a 0.28220067,0.28220067 0 0 0 -0.125296,0.23649 1.4110033,1.4110033 0 1 1 -0.188791,-0.7055 z"
           id="path908"
           style="fill:#ffffff;fill-opacity:1;stroke-width:0.28220066"
           inkscape:connector-curvature="0" />
        <path
           d="m 17.592406,321.0382 a 0.28220067,0.28220067 0 0 0 -0.455472,0.33328 3.3816105,3.3816105 0 0 1 -4.761289,4.70203 0.28220067,0.28220067 0 0 0 -0.295464,-0.0265 l -0.92195,0.46112 0.320298,-1.28119 a 0.28220067,0.28220067 0 0 0 -0.02822,-0.20658 3.3824571,3.3824571 0 0 1 4.948106,-4.38596 0.28220067,0.28220067 0 0 0 0.333279,-0.45547 3.9414966,3.9414966 0 0 0 -5.993942,1.72142 3.0977168,3.0977168 0 0 0 -1.6960264,-0.50937 h -0.479741 a 3.1217039,3.1217039 0 0 0 0.880184,-0.94707 4.2282126,4.2282126 0 1 0 -5.474975,-6.43953 0.28220067,0.28220067 0 1 0 0.376173,0.42076 3.6652224,3.6652224 0 0 1 5.530851,4.70823 c 0.0082,-0.0928 0.01412,-0.18624 0.01412,-0.2822 v -1.1288 a 0.28220067,0.28220067 0 0 0 -0.564401,0 v 1.1288 a 2.5398065,2.5398065 0 0 1 -5.079613,0 v -1.98838 a 3.1250903,3.1250903 0 0 0 2.042569,-1.03455 l 0.543236,0.31042 a 5.6033765,5.6033765 0 0 0 2.776008,0.73711 0.28220067,0.28220067 0 0 0 0,-0.5644 5.037564,5.037564 0 0 1 -2.496065,-0.66289 l -0.749243,-0.42867 a 0.28220067,0.28220067 0 0 0 -0.36686,0.0756 2.5522229,2.5522229 0 0 1 -2.031845,1.01593 0.28220067,0.28220067 0 0 0 -0.282201,0.2822 v 2.2576 c 0,0.0951 0.0059,0.18851 0.01412,0.2822 a 3.6508301,3.6508301 0 0 1 -0.02541,-3.90424 0.28230744,0.28230744 0 1 0 -0.479741,-0.29772 4.2135383,4.2135383 0 0 0 0.935495,5.51335 3.1217039,3.1217039 0 0 0 0.881877,0.94622 h -0.479741 a 3.1078757,3.1078757 0 0 0 -3.104207,3.10421 v 5.07961 a 0.28220067,0.28220067 0 0 0 0.564401,0 v -3.95081 h 1.693204 v 1.411 a 0.282201,0.282201 0 0 0 0.564402,0 v -2.5398 a 0.282201,0.282201 0 0 0 -0.564402,0 v 0.5644 h -1.693204 v -0.5644 a 2.5429102,2.5429102 0 0 1 2.539806,-2.53981 h 0.564402 a 1.6932041,1.6932041 0 0 0 3.386408,0 h 0.564401 a 2.5333154,2.5333154 0 0 1 1.5188044,0.50796 3.8588119,3.8588119 0 0 0 0.282201,2.59625 H 9.8883356 v -0.5644 a 0.28220067,0.28220067 0 0 0 -0.564401,0 v 5.07961 a 0.28220067,0.28220067 0 0 0 0.564401,0 v -2.82201 a 0.28220067,0.28220067 0 0 0 0,-0.5644 v -0.5644 H 10.79674 l -0.335537,1.34243 a 0.28220067,0.28220067 0 0 0 0.399879,0.32255 l 1.319288,-0.65978 a 3.9081969,3.9081969 0 0 0 2.223177,0.688 3.946294,3.946294 0 0 0 3.188867,-6.27896 z m -10.8082854,2.04595 a 1.1288027,1.1288027 0 0 1 -1.128803,-1.1288 v -0.2156 a 3.0627238,3.0627238 0 0 0 2.257605,0 v 0.2156 a 1.1288027,1.1288027 0 0 1 -1.128802,1.1288 z"
           id="path914"
           style="fill:#ffffff;fill-opacity:1;stroke-width:0.28220066"
           inkscape:connector-curvature="0" />
      </g>
    </g>
  </g>
</svg>
