<?xml version="1.0" encoding="UTF-8" standalone="no"?>
<!-- Created with Inkscape (http://www.inkscape.org/) -->

<svg
   xmlns:dc="http://purl.org/dc/elements/1.1/"
   xmlns:cc="http://creativecommons.org/ns#"
   xmlns:rdf="http://www.w3.org/1999/02/22-rdf-syntax-ns#"
   xmlns:svg="http://www.w3.org/2000/svg"
   xmlns="http://www.w3.org/2000/svg"
   xmlns:sodipodi="http://sodipodi.sourceforge.net/DTD/sodipodi-0.dtd"
   xmlns:inkscape="http://www.inkscape.org/namespaces/inkscape"
   width="64"
   height="64"
   viewBox="0 0 16.933333 16.933334"
   version="1.1"
   id="svg8"
   inkscape:version="0.92.4 (5da689c313, 2019-01-14)"
   sodipodi:docname="quar.svg">
  <defs
     id="defs2" />
  <sodipodi:namedview
     id="base"
     pagecolor="#ffffff"
     bordercolor="#666666"
     borderopacity="1.0"
     inkscape:pageopacity="0.0"
     inkscape:pageshadow="2"
     inkscape:zoom="1.4"
     inkscape:cx="-2.2585035"
     inkscape:cy="-92.184797"
     inkscape:document-units="mm"
     inkscape:current-layer="layer1"
     showgrid="false"
     units="px"
     inkscape:window-width="1600"
     inkscape:window-height="837"
     inkscape:window-x="-8"
     inkscape:window-y="-8"
     inkscape:window-maximized="1" />
  <metadata
     id="metadata5">
    <rdf:RDF>
      <cc:Work
         rdf:about="">
        <dc:format>image/svg+xml</dc:format>
        <dc:type
           rdf:resource="http://purl.org/dc/dcmitype/StillImage" />
        <dc:title></dc:title>
      </cc:Work>
    </rdf:RDF>
  </metadata>
  <g
     inkscape:label="Layer 1"
     inkscape:groupmode="layer"
     id="layer1"
     transform="translate(0,-280.06665)">
    <path
       inkscape:connector-curvature="0"
       d="m 16.221098,288.80326 c -0.120954,0.12015 -0.279022,0.1802 -0.437059,0.1802 -0.159401,0 -0.318709,-0.0611 -0.439911,-0.18305 l -0.490264,-0.49352 v 2.25784 c 0,0.34249 -0.277627,0.62012 -0.620117,0.62012 -0.34249,0 -0.620117,-0.27763 -0.620117,-0.62012 v -3.50623 l -4.7162055,-4.74731 c -0.231428,-0.19825 -0.572182,-0.19899 -0.804509,-0.002 l -4.774125,4.7647 c 1.87e-4,0.006 9.02e-4,0.0118 9.02e-4,0.0179 v 6.57324 c 0,0.68387 0.556369,1.24024 1.240234,1.24024 h 7.8134695 c 0.683865,0 1.240234,-0.55637 1.240234,-1.24024 0,-0.34249 0.277627,-0.62011 0.620117,-0.62011 0.34249,0 0.620117,0.27762 0.620117,0.62011 0,1.36773 -1.112738,2.48047 -2.480468,2.48047 H 4.5599235 c -1.36773,0 -2.480468,-1.11274 -2.480468,-2.48047 v -5.35421 l -0.492125,0.49116 c -0.242372,0.24191 -0.634999,0.24154 -0.876969,-8.2e-4 -0.241939,-0.2424 -0.241535,-0.63503 8.67e-4,-0.877 0,0 6.537087,-6.52375 6.545893,-6.5316 0.708235,-0.63053 1.774371,-0.62824 2.479909,0.005 0.0087,0.008 6.4869185,6.52825 6.4869185,6.52825 0.241412,0.24296 0.240109,0.63559 -0.0029,0.87697 z m -9.5219575,1.96285 c -0.314585,-0.38481 -0.503659,-0.87597 -0.503659,-1.41061 0,-1.23096 1.001458,-2.23242 2.232421,-2.23242 1.230963,0 2.2324205,1.00146 2.2324205,2.23242 0,0.53755 -0.191027,1.03129 -0.508682,1.417 0.450143,0.21531 0.863947,0.51408 1.215088,0.8855 0.235273,0.24885 0.224266,0.64135 -0.02459,0.87663 -0.119838,0.11329 -0.273069,0.16951 -0.425896,0.16951 -0.164579,0 -0.328786,-0.0651 -0.450732,-0.1941 -0.5275335,-0.55798 -1.2863395,-0.89111 -2.0298595,-0.89111 -0.773224,0 -1.513085,0.3135 -2.02986,0.8601 -0.235272,0.24883 -0.627713,0.25993 -0.876628,0.0246 -0.248853,-0.23527 -0.25986,-0.62778 -0.02459,-0.87663 0.34094,-0.3606 0.747768,-0.65103 1.194562,-0.86088 z m 0.736575,-1.41061 c 0,0.5471 0.445089,0.99219 0.992187,0.99219 0.547099,0 0.992187,-0.44509 0.992187,-0.99219 0,-0.54709 -0.445088,-0.99218 -0.992187,-0.99218 -0.547098,0 -0.992187,0.44509 -0.992187,0.99218 z"
       id="path824"
       style="stroke-width:0.03100584;fill:#ffffff" />
  </g>
</svg>
