<?xml version="1.0" encoding="UTF-8" standalone="no"?>
<!-- Created with Inkscape (http://www.inkscape.org/) -->

<svg
   xmlns:dc="http://purl.org/dc/elements/1.1/"
   xmlns:cc="http://creativecommons.org/ns#"
   xmlns:rdf="http://www.w3.org/1999/02/22-rdf-syntax-ns#"
   xmlns:svg="http://www.w3.org/2000/svg"
   xmlns="http://www.w3.org/2000/svg"
   xmlns:sodipodi="http://sodipodi.sourceforge.net/DTD/sodipodi-0.dtd"
   xmlns:inkscape="http://www.inkscape.org/namespaces/inkscape"
   width="24"
   height="24"
   viewBox="0 0 6.3499999 6.3500002"
   version="1.1"
   id="svg841"
   inkscape:version="0.92.4 (5da689c313, 2019-01-14)"
   sodipodi:docname="recoveredsmall.svg">
  <defs
     id="defs835" />
  <sodipodi:namedview
     id="base"
     pagecolor="#ffffff"
     bordercolor="#666666"
     borderopacity="1.0"
     inkscape:pageopacity="0.0"
     inkscape:pageshadow="2"
     inkscape:zoom="2.8"
     inkscape:cx="70.322588"
     inkscape:cy="-40.895297"
     inkscape:document-units="mm"
     inkscape:current-layer="layer1"
     showgrid="false"
     units="px"
     inkscape:window-width="1600"
     inkscape:window-height="837"
     inkscape:window-x="-8"
     inkscape:window-y="-8"
     inkscape:window-maximized="1" />
  <metadata
     id="metadata838">
    <rdf:RDF>
      <cc:Work
         rdf:about="">
        <dc:format>image/svg+xml</dc:format>
        <dc:type
           rdf:resource="http://purl.org/dc/dcmitype/StillImage" />
        <dc:title></dc:title>
      </cc:Work>
    </rdf:RDF>
  </metadata>
  <g
     inkscape:label="Layer 1"
     inkscape:groupmode="layer"
     id="layer1"
     transform="translate(0,-290.64998)">
    <g
       id="g1399"
       transform="matrix(0.36316715,0,0,0.36316715,-5.7474547,176.83599)">
      <path
         style="fill:#ffffff;stroke:none;stroke-width:0.03669619"
         inkscape:connector-curvature="0"
         d="m 26.654884,327.43785 c 0.10193,0.0407 0.220535,0.0405 0.322153,-1.9e-4 0.804524,-0.323 1.577565,-0.93776 1.57663,-1.72972 -0.0011,-0.7673 -1.112338,-1.14883 -1.739655,-0.60843 -0.639785,-0.54264 -1.740746,-0.15306 -1.739966,0.61146 0.0011,0.80844 0.817304,1.42214 1.580838,1.72696 z m -0.19513,-1.90334 c 0.05533,0.0825 0.199494,0.1735 0.365013,0.16954 0.141672,-0.003 0.271031,-0.0722 0.342102,-0.16888 0.247342,-0.33646 0.787847,-0.16849 0.788314,0.17323 6.09e-4,0.54555 -0.580404,0.98167 -1.140392,1.23164 -0.568559,-0.24786 -1.141482,-0.68807 -1.142106,-1.22966 -3.18e-4,-0.3619 0.572924,-0.49466 0.787069,-0.17587 z m 0,0"
         id="path3322" />
      <path
         style="fill:#ffffff;stroke:none;stroke-width:0.03669619"
         inkscape:connector-curvature="0"
         d="m 24.967441,330.52234 c 0,0.13975 0.13388,0.25313 0.299242,0.25313 h 5.422667 c 0.42112,0 0.763845,-0.28978 0.763845,-0.64601 0,-0.37851 0,-3.46998 0,-3.84862 0,-0.13975 -0.134035,-0.25313 -0.299242,-0.25313 -0.165362,0 -0.299397,0.11338 -0.299397,0.25313 v 1.2199 h -1.559175 c -0.42112,0 -0.76369,0.28978 -0.76369,0.64614 v 2.12233 h -3.265008 c -0.165206,0 -0.299242,0.11325 -0.299242,0.25313 z m 4.162734,-2.37546 c 0,-0.0771 0.07419,-0.13988 0.165206,-0.13988 h 1.559331 v 2.12233 c 0,0.0771 -0.07419,0.13988 -0.165362,0.13988 h -1.559175 z m 0,0"
         id="path3324" />
      <path
         style="fill:#ffffff;stroke:none;stroke-width:0.03669619"
         inkscape:connector-curvature="0"
         d="m 31.453195,324.85607 c 0,-1.49663 -1.515067,-2.04072 -1.579434,-2.06314 -0.0019,-7.4e-4 -0.0039,-0.001 -0.0058,-0.002 l -3.577653,-1.17204 v -0.70968 c 0.570897,-0.37561 0.965834,-0.93315 1.062464,-1.56901 0.657708,-0.0753 1.200707,-0.52129 1.200707,-1.06802 0,-0.24416 -0.108631,-0.4783 -0.308593,-0.66974 v -0.97006 c 0,-1.72985 -1.663597,-3.13722 -3.708572,-3.13722 -2.044975,0 -3.708729,1.40737 -3.708729,3.13722 v 0.99195 c -0.199494,0.18774 -0.308593,0.4149 -0.308593,0.64785 0,0.54476 0.540194,0.99235 1.200552,1.06802 0.09897,0.6588 0.514478,1.23256 1.123092,1.60645 v 0.67238 c -0.0036,10e-4 -3.57594,1.17257 -3.579525,1.17388 -0.06449,0.0226 -1.579402,0.56656 -1.579402,2.06332 v 5.27339 c 0,0.35623 0.342726,0.64601 0.763846,0.64601 h 5.422668 c 0.165206,0 0.299242,-0.11338 0.299242,-0.25313 0,-0.13988 -0.134036,-0.25313 -0.299242,-0.25313 H 20.60537 v -2.12233 c 0,-0.35636 -0.342726,-0.64614 -0.763846,-0.64614 h -1.559331 v -2.64467 c 0,-1.13987 1.136963,-1.56901 1.206631,-1.59419 l 2.489006,-0.81634 c 0.418003,0.7553 1.609672,1.13592 2.588598,1.13592 0.977679,0 2.170594,-0.37996 2.588754,-1.13618 l 2.492746,0.8166 c 0.05393,0.0196 1.206631,0.45445 1.206631,1.59419 v 0.2435 c 0,0.13975 0.134035,0.25313 0.299241,0.25313 0.165362,0 0.299243,-0.11338 0.299243,-0.25313 v -0.2435 z M 18.282191,328.007 h 1.55933 c 0.09102,0 0.165207,0.0628 0.165207,0.13988 v 2.12233 h -1.559331 c -0.09102,0 -0.165206,-0.0627 -0.165206,-0.13975 z m 9.672992,-9.7348 c 0,0.26355 -0.269941,0.48161 -0.578534,0.54924 v -1.09768 c 0.326983,0.0725 0.578534,0.29544 0.578534,0.54844 z m -6.259141,0.54938 c -0.309061,-0.0678 -0.578535,-0.28623 -0.578535,-0.54938 0,-0.25234 0.287709,-0.45629 0.578535,-0.53315 z m 0.01278,-1.60566 c -0.09569,0.0143 -0.190611,0.0367 -0.282721,0.0663 v -0.64983 c 0,-1.45075 1.395214,-2.63096 3.110089,-2.63096 1.71503,0 3.110245,1.18021 3.110245,2.63096 v 0.6315 c -0.09117,-0.0272 -0.188118,-0.0464 -0.269786,-0.057 0,-0.0584 0.0012,-0.10428 -0.01231,-0.14977 -0.03912,-0.13104 -0.199494,-0.2526 -0.902401,-0.89122 -0.220693,-0.20066 -0.499361,-0.21002 -0.707272,-0.0951 -1.042515,0.57614 -2.313982,0.86565 -3.487726,0.79432 -0.264487,-0.017 -0.500919,0.13461 -0.558118,0.3507 z m 0.585703,1.82055 c 0,-0.19631 0,-1.49544 0,-1.66235 1.270999,0.0628 2.626003,-0.24983 3.740056,-0.85339 0.430316,0.3909 0.667995,0.6 0.743585,0.67844 v 1.8373 c 0,1.03862 -1.001525,1.86432 -2.202545,1.86551 -0.0011,0 -0.002,9e-5 -0.003,9e-5 -7.68e-4,0 -0.0016,-9e-5 -0.0023,-9e-5 -1.361863,-7.4e-4 -2.275797,-0.89492 -2.275797,-1.86551 z m 3.397331,2.17454 v 0.48687 c -0.295034,0.26988 -0.704466,0.41609 -1.12543,0.41609 -0.423147,0 -0.830241,-0.14621 -1.125275,-0.41609 v -0.47092 c 0.363922,0.1238 0.756677,0.18141 1.131509,0.18141 0.390261,0 0.775847,-0.0703 1.119196,-0.19736 z m -2.758949,1.43611 c -0.167077,-0.0978 -0.302359,-0.23058 -0.395093,-0.3851 l 0.519933,-0.1706 c 0.386988,0.32815 0.924688,0.5288 1.508678,0.5288 0.567936,0 1.110467,-0.19116 1.508833,-0.5288 l 0.520089,0.17034 c -0.427511,0.71285 -2.257718,1.20697 -3.66244,0.38536 z m 0,0"
         id="path3326" />
    </g>
  </g>
</svg>
