<?xml version="1.0" encoding="UTF-8" standalone="no"?>
<!-- Created with Inkscape (http://www.inkscape.org/) -->

<svg
   xmlns:dc="http://purl.org/dc/elements/1.1/"
   xmlns:cc="http://creativecommons.org/ns#"
   xmlns:rdf="http://www.w3.org/1999/02/22-rdf-syntax-ns#"
   xmlns:svg="http://www.w3.org/2000/svg"
   xmlns="http://www.w3.org/2000/svg"
   xmlns:sodipodi="http://sodipodi.sourceforge.net/DTD/sodipodi-0.dtd"
   xmlns:inkscape="http://www.inkscape.org/namespaces/inkscape"
   width="64"
   height="64"
   viewBox="0 0 16.933333 16.933334"
   version="1.1"
   id="svg2763"
   inkscape:version="0.92.4 (5da689c313, 2019-01-14)"
   sodipodi:docname="recovered.svg">
  <defs
     id="defs2757" />
  <sodipodi:namedview
     id="base"
     pagecolor="#ffffff"
     bordercolor="#666666"
     borderopacity="1.0"
     inkscape:pageopacity="0.0"
     inkscape:pageshadow="2"
     inkscape:zoom="3.959798"
     inkscape:cx="56.211071"
     inkscape:cy="58.857548"
     inkscape:document-units="mm"
     inkscape:current-layer="g3903"
     showgrid="false"
     units="px"
     inkscape:window-width="1600"
     inkscape:window-height="837"
     inkscape:window-x="-8"
     inkscape:window-y="-8"
     inkscape:window-maximized="1" />
  <metadata
     id="metadata2760">
    <rdf:RDF>
      <cc:Work
         rdf:about="">
        <dc:format>image/svg+xml</dc:format>
        <dc:type
           rdf:resource="http://purl.org/dc/dcmitype/StillImage" />
        <dc:title></dc:title>
      </cc:Work>
    </rdf:RDF>
  </metadata>
  <g
     inkscape:label="Layer 1"
     inkscape:groupmode="layer"
     id="layer1"
     transform="translate(0,-280.06665)">
    <g
       id="g3903"
       transform="matrix(0.43063147,0,0,0.36427197,32.679001,159.94193)">
      <path
         id="path3322"
         d="m -51.380134,367.56534 c 0.236697,0.11184 0.51212,0.11111 0.748093,-5.3e-4 1.868244,-0.88671 3.663378,-2.57435 3.661206,-4.74842 -0.0025,-2.10639 -2.583039,-3.15379 -4.039776,-1.67027 -1.485691,-1.48967 -4.042311,-0.42019 -4.040501,1.67859 0.0025,2.21932 1.897921,3.90406 3.670978,4.74083 z m -0.453127,-5.22507 c 0.128482,0.22656 0.463261,0.47629 0.847623,0.46543 0.328987,-0.008 0.629382,-0.19833 0.794419,-0.46362 0.574371,-0.92363 1.829517,-0.46253 1.830602,0.47557 0.0014,1.49763 -1.347798,2.69487 -2.648185,3.38108 -1.320292,-0.68042 -2.650719,-1.88888 -2.652167,-3.37565 -7.46e-4,-0.99348 1.330427,-1.35794 1.827708,-0.48281 z m 0,0"
         inkscape:connector-curvature="0"
         style="stroke-width:0.0926521;stroke:none;fill:#ffffff" />
      <path
         id="path3324"
         d="m -55.298667,376.03288 c 0,0.38364 0.310892,0.69489 0.694891,0.69489 h 12.592363 c 0.977914,0 1.773779,-0.7955 1.773779,-1.77342 0,-1.03908 0,-9.5258 0,-10.56524 0,-0.38364 -0.311252,-0.69489 -0.69489,-0.69489 -0.383999,0 -0.695252,0.31125 -0.695252,0.69489 v 3.34887 h -3.620672 c -0.977912,0 -1.773418,0.79551 -1.773418,1.77378 v 5.82623 h -7.58191 c -0.383637,0 -0.694891,0.31089 -0.694891,0.69489 z m 9.666584,-6.52112 c 0,-0.21172 0.172274,-0.384 0.383635,-0.384 h 3.621034 v 5.82623 c 0,0.21173 -0.172276,0.384 -0.383999,0.384 h -3.62067 z m 0,0"
         inkscape:connector-curvature="0"
         style="stroke-width:0.0926521;stroke:none;fill:#ffffff" />
      <path
         id="path3326"
         d="m -40.237634,360.47782 c 0,-4.10854 -3.518244,-5.60219 -3.667717,-5.66372 -0.0043,-0.002 -0.0091,-0.004 -0.01339,-0.005 l -8.307923,-3.21748 v -1.94823 c 1.325721,-1.03112 2.242832,-2.56169 2.467223,-4.30724 1.527313,-0.20666 2.788249,-1.43104 2.788249,-2.93193 0,-0.67028 -0.252259,-1.31305 -0.716605,-1.83857 v -2.66302 c 0,-4.74878 -3.863159,-8.6123 -8.611941,-8.6123 -4.748783,0 -8.612303,3.86352 -8.612303,8.6123 v 2.72311 c -0.463261,0.51538 -0.716607,1.13897 -0.716607,1.77848 0,1.49546 1.254423,2.72419 2.787887,2.93193 0.229821,1.80853 1.194706,3.38362 2.608013,4.41003 v 1.8458 c -0.0083,0.003 -8.303945,3.21894 -8.31227,3.22256 -0.149835,0.0615 -3.66772,1.55482 -3.66772,5.66372 v 14.47653 c 0,0.97792 0.795867,1.77342 1.773781,1.77342 h 12.592363 c 0.383637,0 0.694891,-0.31125 0.694891,-0.69489 0,-0.384 -0.311254,-0.69489 -0.694891,-0.69489 h -7.581548 v -5.82623 c 0,-0.97827 -0.795868,-1.77378 -1.773782,-1.77378 h -3.621032 v -7.26016 c 0,-3.12918 2.640223,-4.30724 2.802002,-4.37636 l 5.779899,-2.24103 c 0.970675,2.07346 3.737934,3.11833 6.011168,3.11833 2.270338,0 5.040491,-1.04307 6.011529,-3.11905 l 5.788586,2.24175 c 0.125225,0.0539 2.802002,1.24754 2.802002,4.37636 v 0.66847 c 0,0.38364 0.311252,0.69489 0.69489,0.69489 0.383999,0 0.694892,-0.31125 0.694892,-0.69489 v -0.66847 z m -30.585328,8.64994 h 3.621033 c 0.211362,0 0.383637,0.17228 0.383637,0.384 v 5.82623 h -3.621032 c -0.211363,0 -0.383638,-0.17227 -0.383638,-0.38364 z m 22.462345,-26.72398 c 0,0.72349 -0.626849,1.3221 -1.343455,1.50777 v -3.01336 c 0.759312,0.19905 1.343455,0.81106 1.343455,1.50559 z m -14.534799,1.50814 c -0.717692,-0.18604 -1.343455,-0.78574 -1.343455,-1.50814 0,-0.69272 0.668108,-1.25261 1.343455,-1.46361 z m 0.02968,-4.40786 c -0.22222,0.0394 -0.442631,0.10062 -0.656527,0.18205 v -1.78392 c 0,-3.98259 3.239928,-7.22252 7.222159,-7.22252 3.982594,0 7.222522,3.23993 7.222522,7.22252 v 1.73361 c -0.211725,-0.0746 -0.436841,-0.12739 -0.626488,-0.15635 0,-0.16033 0.0029,-0.28628 -0.02859,-0.41114 -0.09084,-0.35975 -0.463261,-0.69344 -2.095531,-2.4466 -0.512482,-0.55085 -1.159598,-0.57654 -1.642402,-0.26095 -2.420899,1.58161 -5.373462,2.37638 -8.099098,2.18058 -0.614182,-0.0467 -1.163218,0.36953 -1.296045,0.96272 z m 1.360104,4.99779 c 0,-0.53891 0,-4.10529 0,-4.56348 2.951476,0.17228 6.098029,-0.68585 8.68505,-2.34273 0.999267,1.0731 1.551199,1.64711 1.726731,1.86246 v 5.04375 c 0,2.85122 -2.325713,5.11794 -5.114687,5.1212 -0.0025,0 -0.0047,2.6e-4 -0.0069,2.6e-4 -0.0018,0 -0.0036,-2.6e-4 -0.0054,-2.6e-4 -3.162478,-0.002 -5.28479,-2.45673 -5.28479,-5.1212 z m 7.889183,5.96954 v 1.33658 c -0.685119,0.74085 -1.63589,1.14223 -2.613441,1.14223 -0.982619,0 -1.927961,-0.40138 -2.61308,-1.14223 v -1.29278 c 0.845088,0.33984 1.757132,0.498 2.627557,0.498 0.906254,0 1.801649,-0.1929 2.598964,-0.5418 z m -6.406749,3.94242 c -0.387981,-0.26855 -0.702129,-0.633 -0.917473,-1.05717 l 1.207374,-0.46833 c 0.898652,0.90082 2.147284,1.45167 3.503407,1.45167 1.318845,0 2.578696,-0.52479 3.503769,-1.45167 l 1.207736,0.4676 c -0.992754,1.95692 -5.242808,3.3134 -8.504813,1.0579 z m 0,0"
         inkscape:connector-curvature="0"
         style="stroke-width:0.0926521;fill:#ffffff;stroke:none" />
    </g>
  </g>
</svg>
