<?xml version="1.0" encoding="UTF-8" standalone="no"?>
<svg
   xmlns:dc="http://purl.org/dc/elements/1.1/"
   xmlns:cc="http://creativecommons.org/ns#"
   xmlns:rdf="http://www.w3.org/1999/02/22-rdf-syntax-ns#"
   xmlns:svg="http://www.w3.org/2000/svg"
   xmlns="http://www.w3.org/2000/svg"
   xmlns:sodipodi="http://sodipodi.sourceforge.net/DTD/sodipodi-0.dtd"
   xmlns:inkscape="http://www.inkscape.org/namespaces/inkscape"
   id="Capa_1"
   enable-background="new 0 0 512 512"
   height="64"
   viewBox="0 0 64 64"
   width="64"
   version="1.1"
   sodipodi:docname="trend.svg"
   inkscape:version="0.92.4 (5da689c313, 2019-01-14)">
  <metadata
     id="metadata875">
    <rdf:RDF>
      <cc:Work
         rdf:about="">
        <dc:format>image/svg+xml</dc:format>
        <dc:type
           rdf:resource="http://purl.org/dc/dcmitype/StillImage" />
        <dc:title></dc:title>
      </cc:Work>
    </rdf:RDF>
  </metadata>
  <defs
     id="defs873" />
  <sodipodi:namedview
     pagecolor="#ffffff"
     bordercolor="#666666"
     borderopacity="1"
     objecttolerance="10"
     gridtolerance="10"
     guidetolerance="10"
     inkscape:pageopacity="0"
     inkscape:pageshadow="2"
     inkscape:window-width="1600"
     inkscape:window-height="837"
     id="namedview871"
     showgrid="false"
     inkscape:zoom="1.3046875"
     inkscape:cx="256"
     inkscape:cy="256"
     inkscape:window-x="-8"
     inkscape:window-y="-8"
     inkscape:window-maximized="1"
     inkscape:current-layer="g889" />
  <g
     id="g889"
     transform="matrix(0.1171875,0,0,0.1171875,2,2)">
    <g
       id="g868"
       style="fill:#ffffff">
      <path
         id="path846"
         d="m 256,199.946 c 4.142,0 7.5,-3.358 7.5,-7.5 v -8.016 c 0,-4.142 -3.358,-7.5 -7.5,-7.5 -4.142,0 -7.5,3.358 -7.5,7.5 v 8.016 c 0,4.142 3.358,7.5 7.5,7.5 z"
         inkscape:connector-curvature="0"
         style="fill:#ffffff" />
      <path
         id="path848"
         d="m 248.5,248.56 c 0,4.142 3.358,7.5 7.5,7.5 4.142,0 7.5,-3.358 7.5,-7.5 v -8.016 c 0,-4.142 -3.358,-7.5 -7.5,-7.5 -4.142,0 -7.5,3.358 -7.5,7.5 z"
         inkscape:connector-curvature="0"
         style="fill:#ffffff" />
      <path
         id="path850"
         d="m 159.807,223.995 h 24.963 c 0.785,7.476 2.739,14.779 5.783,21.625 l -21.609,12.476 c -3.587,2.071 -4.816,6.658 -2.745,10.245 1.389,2.406 3.91,3.751 6.502,3.751 1.272,0 2.562,-0.324 3.743,-1.006 l 27.769,-16.032 c 3.587,-2.071 4.816,-6.658 2.745,-10.245 -0.027,-0.047 -0.059,-0.088 -0.087,-0.134 -4.906,-8.532 -7.5,-18.272 -7.5,-28.18 0,-31.226 25.404,-56.629 56.629,-56.629 31.225,0 56.629,25.404 56.629,56.629 0,31.225 -25.404,56.629 -56.629,56.629 -9.906,0 -19.645,-2.593 -28.175,-7.497 -0.048,-0.029 -0.091,-0.062 -0.139,-0.09 -3.587,-2.073 -8.174,-0.842 -10.245,2.745 l -16.032,27.769 c -2.071,3.587 -0.842,8.174 2.745,10.245 1.181,0.682 2.471,1.006 3.743,1.006 2.592,0 5.113,-1.346 6.502,-3.751 l 12.476,-21.609 c 6.846,3.044 14.15,4.998 21.625,5.783 v 24.963 c 0,4.142 3.358,7.5 7.5,7.5 4.142,0 7.5,-3.358 7.5,-7.5 V 287.73 c 7.623,-0.797 14.885,-2.808 21.611,-5.813 l 12.49,21.634 c 1.389,2.406 3.91,3.751 6.502,3.751 1.272,0 2.562,-0.324 3.743,-1.006 3.587,-2.071 4.816,-6.658 2.745,-10.245 l -12.5,-21.651 c 6.058,-4.416 11.397,-9.755 15.813,-15.813 l 21.651,12.5 c 1.181,0.682 2.471,1.006 3.743,1.006 2.592,0 5.113,-1.346 6.502,-3.751 2.071,-3.587 0.842,-8.174 -2.745,-10.245 l -21.634,-12.491 c 3.005,-6.726 5.016,-13.988 5.813,-21.611 h 24.959 c 4.142,0 7.5,-3.358 7.5,-7.5 0,-4.142 -3.358,-7.5 -7.5,-7.5 h -24.959 c -0.797,-7.623 -2.808,-14.885 -5.813,-21.612 l 21.634,-12.491 c 3.587,-2.071 4.816,-6.658 2.745,-10.245 -2.071,-3.587 -6.658,-4.816 -10.245,-2.745 l -21.651,12.5 c -4.416,-6.058 -9.755,-11.397 -15.813,-15.813 l 12.5,-21.651 c 2.071,-3.587 0.842,-8.174 -2.745,-10.245 -3.587,-2.072 -8.174,-0.843 -10.245,2.745 l -12.49,21.634 c -6.726,-3.005 -13.989,-5.016 -21.611,-5.813 V 120.3 c 0,-4.142 -3.358,-7.5 -7.5,-7.5 -4.142,0 -7.5,3.358 -7.5,7.5 v 24.959 c -7.623,0.797 -14.885,2.808 -21.611,5.813 l -12.49,-21.634 c -2.071,-3.588 -6.658,-4.816 -10.245,-2.745 -3.587,2.071 -4.816,6.658 -2.745,10.245 l 12.5,21.651 c -6.058,4.416 -11.397,9.755 -15.813,15.813 l -21.651,-12.5 c -3.587,-2.072 -8.174,-0.842 -10.245,2.745 -2.071,3.587 -0.842,8.174 2.745,10.245 l 21.634,12.491 c -3.005,6.726 -5.016,13.989 -5.813,21.612 h -24.959 c -4.142,0 -7.5,3.358 -7.5,7.5 0,4.142 3.358,7.5 7.5,7.5 z"
         inkscape:connector-curvature="0"
         style="fill:#ffffff" />
      <path
         id="path852"
         d="m 288.064,223.995 c 4.142,0 7.5,-3.358 7.5,-7.5 0,-4.142 -3.358,-7.5 -7.5,-7.5 h -8.016 c -4.142,0 -7.5,3.358 -7.5,7.5 0,4.142 3.358,7.5 7.5,7.5 z"
         inkscape:connector-curvature="0"
         style="fill:#ffffff" />
      <path
         id="path854"
         d="m 223.936,223.995 h 8.016 c 4.142,0 7.5,-3.358 7.5,-7.5 0,-4.142 -3.358,-7.5 -7.5,-7.5 h -8.016 c -4.142,0 -7.5,3.358 -7.5,7.5 0,4.142 3.357,7.5 7.5,7.5 z"
         inkscape:connector-curvature="0"
         style="fill:#ffffff" />
      <path
         id="path856"
         d="M 504.5,400.807 H 487.952 V 204.898 C 503.707,168.359 512,128.65 512,87.662 c 0,-4.142 -3.358,-7.5 -7.5,-7.5 -4.142,0 -7.5,3.358 -7.5,7.5 0,75.079 -29.237,145.665 -82.327,198.753 -53.089,53.089 -123.674,82.327 -198.754,82.327 H 39.048 V 71.629 c 0,-4.142 -3.358,-7.5 -7.5,-7.5 -4.142,0 -7.5,3.358 -7.5,7.5 v 8.532 H 7.5 c -4.142,0 -7.5,3.358 -7.5,7.5 0,4.142 3.358,7.5 7.5,7.5 H 24.048 V 144.29 H 7.5 c -4.142,0 -7.5,3.358 -7.5,7.5 0,4.142 3.358,7.5 7.5,7.5 h 16.548 v 49.129 H 7.5 c -4.142,0 -7.5,3.358 -7.5,7.5 0,4.142 3.358,7.5 7.5,7.5 h 16.548 v 49.129 H 7.5 c -4.142,0 -7.5,3.358 -7.5,7.5 0,4.142 3.358,7.5 7.5,7.5 h 16.548 v 49.129 H 7.5 c -4.142,0 -7.5,3.358 -7.5,7.5 0,4.142 3.358,7.5 7.5,7.5 h 16.548 v 49.129 H 7.5 c -4.142,0 -7.5,3.358 -7.5,7.5 0,4.142 3.358,7.5 7.5,7.5 h 88.176 c 4.142,0 7.5,-3.358 7.5,-7.5 0,-4.142 -3.358,-7.5 -7.5,-7.5 H 39.048 v -17.065 h 97.226 v 17.065 h -8.534 c -4.142,0 -7.5,3.358 -7.5,7.5 0,4.142 3.358,7.5 7.5,7.5 H 504.5 c 4.142,0 7.5,-3.358 7.5,-7.5 0,-4.142 -3.358,-7.499 -7.5,-7.499 z M 425.28,297.022 c 18.81,-18.81 34.762,-39.712 47.671,-62.171 v 165.955 h -97.226 v -63.795 c 17.7,-11.393 34.316,-24.75 49.555,-39.989 z M 360.726,400.807 H 263.5 V 379.94 c 34.331,-5.514 67.151,-16.971 97.226,-33.886 z M 151.274,383.742 h 64.645 c 10.965,0 21.834,-0.614 32.581,-1.783 v 18.847 h -97.226 z"
         inkscape:connector-curvature="0"
         style="fill:#ffffff" />
      <path
         id="path858"
         d="m 151.791,432.871 h -16.032 c -4.142,0 -7.5,3.358 -7.5,7.5 0,4.142 3.358,7.5 7.5,7.5 h 16.032 c 4.142,0 7.5,-3.358 7.5,-7.5 0,-4.142 -3.358,-7.5 -7.5,-7.5 z"
         inkscape:connector-curvature="0"
         style="fill:#ffffff" />
      <path
         id="path860"
         d="M 39.564,432.871 H 23.532 c -4.142,0 -7.5,3.358 -7.5,7.5 0,4.142 3.358,7.5 7.5,7.5 h 16.032 c 4.142,0 7.5,-3.358 7.5,-7.5 0,-4.142 -3.357,-7.5 -7.5,-7.5 z"
         inkscape:connector-curvature="0"
         style="fill:#ffffff" />
      <path
         id="path862"
         d="m 264.016,432.871 h -16.032 c -4.142,0 -7.5,3.358 -7.5,7.5 0,4.142 3.358,7.5 7.5,7.5 h 16.032 c 4.142,0 7.5,-3.358 7.5,-7.5 0,-4.142 -3.358,-7.5 -7.5,-7.5 z"
         inkscape:connector-curvature="0"
         style="fill:#ffffff" />
      <path
         id="path864"
         d="M 376.242,432.871 H 360.21 c -4.142,0 -7.5,3.358 -7.5,7.5 0,4.142 3.358,7.5 7.5,7.5 h 16.032 c 4.142,0 7.5,-3.358 7.5,-7.5 0,-4.142 -3.358,-7.5 -7.5,-7.5 z"
         inkscape:connector-curvature="0"
         style="fill:#ffffff" />
      <path
         id="path866"
         d="m 488.468,432.871 h -16.032 c -4.142,0 -7.5,3.358 -7.5,7.5 0,4.142 3.358,7.5 7.5,7.5 h 16.032 c 4.142,0 7.5,-3.358 7.5,-7.5 0,-4.142 -3.358,-7.5 -7.5,-7.5 z"
         inkscape:connector-curvature="0"
         style="fill:#ffffff" />
    </g>
  </g>
</svg>
