<?xml version="1.0"?>
<svg xmlns="http://www.w3.org/2000/svg" xmlns:xlink="http://www.w3.org/1999/xlink" version="1.1" id="Capa_1" x="0px" y="0px" viewBox="0 0 407.45 407.45" style="enable-background:new 0 0 407.45 407.45;" xml:space="preserve" width="512px" height="512px" class=""><g><path d="M255.737,79.166c-3.905-3.905-3.905-10.237,0-14.142l17.553-17.552c3.905-3.904,10.238-3.905,14.142,0  c3.905,3.905,3.905,10.237,0,14.142l-17.553,17.552c-1.952,1.952-4.512,2.929-7.071,2.929  C260.249,82.095,257.689,81.119,255.737,79.166z M177.294,79.166c1.953,1.953,4.512,2.929,7.071,2.929  c2.559,0,5.119-0.977,7.071-2.929c3.905-3.905,3.906-10.237,0-14.142l-17.551-17.552c-3.904-3.905-10.237-3.905-14.142,0  c-3.905,3.905-3.906,10.237,0,14.142L177.294,79.166z M224.778,64.543c5.523,0,10-4.477,10-10V29.72c0-5.523-4.477-10-10-10  s-10,4.477-10,10v24.823C214.778,60.066,219.255,64.543,224.778,64.543z M320.068,226.877c2.165,3.05,2.447,7.054,0.73,10.377  c-1.716,3.324-5.144,5.411-8.885,5.411h-93.538c-5.523,0-10-4.477-10-10v-53.377c0-5.523,4.477-10,10-10h55.652  c3.24,0,6.279,1.57,8.155,4.212L320.068,226.877z M292.553,222.665l-23.69-33.377h-40.487v33.377H292.553z M137.076,195.353h-17.312  v-17.312c0-5.523-4.477-10-10-10s-10,4.477-10,10v17.312H82.452c-5.523,0-10,4.477-10,10s4.477,10,10,10h17.312v17.313  c0,5.523,4.477,10,10,10s10-4.477,10-10v-17.313h17.312c5.523,0,10-4.477,10-10S142.599,195.353,137.076,195.353z M358.237,339.377  c-1.862,10.735-6.668,20.475-13.552,28.353h52.761c5.523,0,10,4.477,10,10s-4.477,10-10,10H10.613c-5.523,0-10-4.477-10-10  s4.477-10,10-10h52.758c-6.884-7.877-11.69-17.619-13.553-28.353H10c-5.523,0-10-4.477-10-10V135.954c0-5.523,4.477-10,10-10h181.37  v-13.22c0-18.316,14.902-33.218,33.219-33.218h0.381c18.315,0,33.215,14.901,33.215,33.218v13.22h42.554  c3.24,0,6.279,1.57,8.155,4.212l96.71,136.249c1.2,1.691,1.845,3.714,1.845,5.788v57.175c0,5.523-4.477,10-10,10H358.237z   M211.37,125.954h26.815v-13.22c0-7.288-5.928-13.218-13.215-13.218h-0.381c-7.289,0-13.219,5.93-13.219,13.218V125.954z   M145.67,329.377c0-21.148-17.206-38.354-38.354-38.354c-21.148,0-38.354,17.206-38.356,38.354  c0.001,21.146,17.208,38.352,38.356,38.352C128.464,367.73,145.67,350.525,145.67,329.377z M256.795,367.73  c-6.884-7.877-11.69-17.619-13.553-28.353h-78.429c-1.862,10.735-6.668,20.475-13.552,28.353H256.795z M339.094,329.377  c0-21.148-17.206-38.354-38.354-38.354c-21.148,0-38.354,17.206-38.356,38.354c0.001,21.146,17.208,38.352,38.356,38.352  C321.889,367.73,339.094,350.525,339.094,329.377z M358.237,319.377h29.213v-43.987l-91.875-129.437H20v173.424h29.817  c4.759-27.429,28.732-48.354,57.498-48.354c28.768,0,52.74,20.926,57.497,48.354h78.429c4.759-27.429,28.732-48.354,57.498-48.354  C329.507,271.024,353.48,291.95,358.237,319.377z M300.74,318.321c-6.107,0-11.058,4.95-11.058,11.057  c0,6.106,4.952,11.057,11.058,11.057c6.105,0,11.056-4.951,11.056-11.057C311.796,323.271,306.845,318.321,300.74,318.321z   M107.315,318.321c-6.108,0-11.056,4.95-11.056,11.057c0,6.106,4.948,11.057,11.056,11.057c6.106,0,11.056-4.951,11.056-11.057  C118.372,323.271,113.422,318.321,107.315,318.321z" data-original="#000000" class="active-path" fill="#000000"/></g> </svg>
