<?xml version="1.0"?>
<svg xmlns="http://www.w3.org/2000/svg" id="Capa_1" enable-background="new 0 0 512 512" height="512px" viewBox="0 0 512 512" width="512px"><g><g><path d="m182.015 344c.651-41.496-1.677-47.016 2.565-59-2.607.619-29.669-4.387-45.781 21.367-5.859-12.281-18.233-21.367-33.799-21.367-30.618 0-47.881 34.641-30.679 59z" data-original="#000000" class="active-path" fill="#000000"/><path d="m182 374h-152v-134c0-8.284-6.716-15-15-15s-15 6.716-15 15v257c0 8.284 6.716 15 15 15s15-6.716 15-15v-62h154.58c-4.28-12.069-1.873-17.506-2.58-61z" data-original="#000000" class="active-path" fill="#000000"/><path d="m457 285h-105v-255h59c8.284 0 15-6.716 15-15s-6.716-15-15-15h-185c-8.284 0-15 6.716-15 15s6.716 15 15 15h16v30h-16c-8.284 0-15 6.716-15 15v30c0 19.555 12.541 36.228 30 42.42v107.58h30v-107.58c17.459-6.192 30-22.865 30-42.42v-30c0-8.284-6.716-15-15-15h-14v-30h50v255h-95c-8.284 0-15 6.716-15 15v120c0 8.284 6.716 15 15 15h255v61c0 8.284 6.716 15 15 15s15-6.716 15-15c0-18.491 0-136.636 0-156 0-30.327-24.673-55-55-55z" data-original="#000000" class="active-path" fill="#000000"/></g></g> </svg>
