<?xml version="1.0"?>
<svg xmlns="http://www.w3.org/2000/svg" height="512px" viewBox="0 0 60 60" width="512px"><g><g id="Page-1" fill="none" fill-rule="evenodd"><g id="028---Gloves" fill="rgb(0,0,0)" fill-rule="nonzero"><path id="Shape" d="m57.645 35.787c.2510745.2599566.6228779.3642126.9725073.2726972.3496295-.0915155.6226744-.3645604.7141899-.7141899.0915154-.3496294-.0127406-.7214328-.2726972-.9725073l-5.82-5.819c.7053636-1.1839298.5307345-2.6935339-.4262947-3.6851602-.9570292-.9916262-2.4594831-1.2197324-3.6677053-.5568398-1.4357096-1.6936308-2.5515221-3.634189-3.293-5.727l-5.319-15.147c-.3029619-.87237677-.9408012-1.58822624-1.7726004-1.98939623-.8317991-.40116999-1.7890974-.45464246-2.6603996-.14860377-.8728863.3051364-1.5887217.94466725-1.9899031 1.77778921-.4011815.83312196-.4548166 1.79152862-.1490969 2.66421079l1.948 5.548-10.332-10.27c-1.3808881-1.31441294-3.5501119-1.31441294-4.931 0-.3635424.36752611-.6402956.81169786-.81 1.3l-1.295-1.299c-1.3810209-1.31504764-3.5509791-1.31504764-4.932 0-.6548707.65357411-1.0228824 1.54078937-1.0228824 2.466s.3680117 1.81242589 1.0228824 2.466l.73.73c-.4947578.15652811-.9456277.42752967-1.316.791-.6528516.65281912-1.0196226 1.53825136-1.0196226 2.4615 0 .9232486.366771 1.8086809 1.0196226 2.4615l1.172 1.176c-.054.023-.112.035-.166.06-.4630519.2262923-.8698989.552863-1.191.956l-.795-1.651c-.5401856-1.1227071-1.6382947-1.8719458-2.88068042-1.9654849-1.24238568-.0935391-2.44029994.482832-3.14250004 1.512s-.80200514 2.3547778-.26181954 3.4774849l.436.906c-1.19480853.002342-2.30462477.6183413-2.93862147 1.6310708-.63399671 1.0127296-.70325247 2.2801486-.18337853 3.3559292l1.158 2.407c-.60167374-.0045499-1.19414527.14779-1.719.442-1.59544314.965984-2.18090116 2.9957169-1.345 4.663l6.888 14.318c1.87856955 3.9171785 4.8347135 7.217778 8.522 9.515-.8759032 1.0179897-.9834561 2.4889078-.2649473 3.6234802.7185089 1.1345724 2.0942205 1.6661598 3.3889473 1.3095198l.626 1.3c.2524404.4734118.8334876.6632568 1.3167456.430219.4832581-.2330377.6965062-.8059096.4832544-1.298219l-.6-1.241 12.4-5.964 3.887 8.073c.2524404.4734118.8334876.6632568 1.3167456.430219.4832581-.2330377.6965062-.8059096.4832544-1.298219l-3.935-8.172c1.063421-.8816854 1.401767-2.367866.8248176-3.6230005-.5769494-1.2551346-1.9252254-1.9660233-3.2868176-1.7329995-.7954675-2.0726924-1.2068447-4.2729164-1.214-6.493v-2.382c1.3280564.5852035 2.7094493 1.0409795 4.125 1.361-.4701414 1.2498978-.0772139 2.6603407.9714577 3.4871208s2.5118663.8797171 3.6175423.1308792l5.784 5.784c.3923789.3789722 1.0160848.3735524 1.4018186-.0121814s.3911536-1.0094397.0121814-1.4018186l-5.736-5.741 9.722-9.725zm-47.789 7.03-6.887-14.317c-.37473994-.7229762-.14348305-1.6121934.536-2.061.35874401-.2051346.7865006-.2522895 1.18131421-.1302252.39481361.1220644.72131611.4024131.90168579.7742252l2.512 5.23c.14447365.3386157.46331627.5704654.82997716.6035263.3666609.033061.7218343-.1380142.92454961-.4453247.20271533-.3073105.22018423-.7011502.04547323-1.0252016l-2.509-5.226-2.517-5.23c-.35622366-.7403377-.04483771-1.6292763.6955-1.9855s1.62927634-.0448377 1.9855.6955l5.032 10.46c.1665476.345726.5162495.5656496.9.566.1499598-.0008398.2978586-.0349966.433-.1.2391515-.1149077.4228342-.3201462.5106097-.5705312.0877754-.2503851.0724473-.5253892-.0426097-.7644688l-5.03-10.458-1.8-3.736c-.34683107-.7384986-.03383523-1.6185368.70142738-1.9721762.73526262-.3536394 1.61815514-.0487877 1.97857262.6831762l6.831 14.192c.1444737.3386157.4633163.5704654.8299772.6035263.3666609.033061.7218343-.1380142.9245496-.4453247s.2201842-.7011502.0454732-1.0252016l-4.669-9.707v-.006c-.2299004-.4790932-.186744-1.0444439.1132127-1.4830901.2999566-.4386461.8111429-.683947 1.341-.6435.529857.040447.9978869.3604969 1.2277873.8395901l8.254 17.043c.2031933.4195416.6693122.6430382 1.1236605.5387772.4543482-.1042609.7763908-.5086198.7763395-.9747772l-.007-10.25c.0007946-.39349.1579389-.7705331.4368346-1.0481159.2788956-.2775828.6566761-.4329462 1.0501654-.4318841h.008c.3936483.0007876.7707416.1584714 1.0477765.4381341.277035.2796627.431152.6582277.4282235 1.0518659l.011 16.051c.0077177 2.4716065.4676245 4.9209407 1.357 7.227l-12.917 6.21c-3.7391449-2.1013975-6.7402183-5.3035899-8.595-9.171zm24.207 4.229c.4090768.1439981.6912503.5200905.7151005.9531152.0238503.4330248-.2153126.8378315-.6061005 1.0258848l-14.772 7.109c-.3470812.1796514-.7643917.1563828-1.0893494-.0607404s-.5061634-.5937584-.4730203-.9831701c.0331432-.3894117.2753928-.7300062.6323697-.8890895l14.776-7.109c.2565018-.1245139.5521944-.1410813.821-.046zm-2.063-24.555c.0016602-1.9188974-1.5511069-3.4765869-3.47-3.481h-.02c-1.9229884.0016558-3.4810007 1.5610109-3.481 3.484v5.881l-6.35-13.112c-.3300341-.6795539-.8738203-1.2321221-1.548-1.573l-2.7-2.708c-.278401-.2775025-.4348809-.6544163-.4348809-1.0475 0-.39308366.1564799-.76999752.4348809-1.0475.5876945-.56076314 1.5123055-.56076314 2.1 0l8.21 8.2c.3907415.3904653 1.0240347.3902415 1.4145-.0005s.3902415-1.0240347-.0005-1.4145l-8.21-8.2-2.922-2.934c-.278704-.27835695-.4353075-.65609835-.4353075-1.05s.1566035-.77164305.4353075-1.05c.5891081-.55722283 1.5108919-.55722283 2.1 0l11.143 11.136c.2510745.2599566.6228779.3642126.9725073.2726972.3496295-.0915155.6226744-.3645604.7141899-.7141899.0915154-.3496294-.0127406-.7214328-.2726972-.9725073l-7.616-7.617v-.006c-.2794428-.27796388-.4365571-.65585255-.4365571-1.05s.1571143-.77203612.4365571-1.05c.5895775-.56088931 1.5154225-.56088931 2.105 0l13.421 13.354c.3307751.3283114.8444885.3846006 1.2385097.1357074.3940211-.2488932.563871-.7369721.4094903-1.1767074l-3.395-9.669c-.1310793-.36915199-.108748-.7754378.062-1.128.208827-.4352389.6155746-.742335 1.0913635-.82398395s.9616499.0722688 1.3036365.41298395c.1567084.15902582.2759411.35102813.349.562l5.318 15.145c.8253573 2.3296463 2.0690789 4.4890453 3.67 6.372l-10.137 10.136c-1.9069545-.3417054-3.756173-.9507053-5.493-1.809zm6.247 16.865c-.418181-.4192088-.418181-1.0977912 0-1.517l11.6-11.595c.2686792-.2821132.6691619-.3964314 1.0462791-.2986615.3771172.0977698.6716126.3922652.7693824.7693824.0977699.3771172-.0165483.7775999-.2986615 1.0462791l-.161.162-11.439 11.433c-.4195515.4182962-1.0984485.4182962-1.518 0z" data-original="#000000" class="active-path" data-old_color="#000000" fill="#FFFFFF"/><path id="Shape" d="m19.184 48.98c.153085-.2166638.2138038-.4852779.1687922-.7467203-.0450116-.2614425-.1920645-.4942853-.4087922-.6472797-2.3556791-1.6596988-4.2440342-3.8983106-5.483-6.5-.2524404-.4734118-.8334876-.6632568-1.3167456-.430219-.4832581.2330377-.6965062.8059096-.4832544 1.298219 1.3957174 2.90274 3.5056446 5.4035473 6.132 7.268.2165415.153186.4850719.2140657.7465048.1692433.2614328-.0448224.4943478-.1916744.6474952-.4082433z" data-original="#000000" class="active-path" data-old_color="#000000" fill="#FFFFFF"/></g></g></g> </svg>
