<?xml version="1.0"?>
<svg xmlns="http://www.w3.org/2000/svg" id="Capa_1" enable-background="new 0 0 512.007 512.007" height="512px" viewBox="0 0 512.007 512.007" width="512px"><g><g><path d="m422.007 139.088c0-24.813-20.187-45-45-45h-122c-24.813 0-45 20.187-45 45v15h-29.605l-125.171-96.168-55.231 71.049 110.619 85.118c-10.963 0-94.771 0-110.611 0v30h30v60h30v62.58c-17.459 6.192-30 22.865-30 42.42 0 24.813 20.187 45 45 45s45-20.187 45-45c0-19.555-12.541-36.228-30-42.42v-62.58h332v62.58c-17.459 6.192-30 22.865-30 42.42 0 24.813 20.187 45 45 45s45-20.187 45-45c0-19.555-12.541-36.228-30-42.42v-62.58h30v-60h30v-90h-90v-14.999zm-347 285c-8.271 0-15-6.729-15-15s6.729-15 15-15 15 6.729 15 15-6.729 15-15 15zm362 0c-8.271 0-15-6.729-15-15s6.729-15 15-15 15 6.729 15 15-6.729 15-15 15zm-197-285c0-8.271 6.729-15 15-15h122c8.271 0 15 6.729 15 15v15h-152zm0 75v-30h152v30zm-197.819-90.509 18.42-23.696 109.6 84.205h39.799v30c-10.058 0-40.133 0-50.195 0zm409.819 150.509h-392v-30h392zm30-90v30h-60v-30z" data-original="#000000" class="active-path" data-old_color="#000000" fill="#FFFFFF"/></g></g> </svg>
