<?xml version="1.0"?>
<svg xmlns="http://www.w3.org/2000/svg" xmlns:xlink="http://www.w3.org/1999/xlink" version="1.1" id="Capa_1" x="0px" y="0px" viewBox="0 0 512 512" style="enable-background:new 0 0 512 512;" xml:space="preserve" width="512px" height="512px" class=""><g><g>
	<g>
		<path d="M512,343V0H0v343h30v89.035c-6.276,8.356-10,18.734-10,29.965c0,27.57,22.43,50,50,50s50-22.43,50-50    c0-11.232-3.724-21.609-10-29.965V404h292v28.035c-6.276,8.356-10,18.734-10,29.965c0,27.57,22.43,50,50,50s50-22.43,50-50    c0-11.232-3.724-21.609-10-29.965V343H512z M70,482c-11.028,0-20-8.972-20-20c0-2.845,0.606-5.548,1.682-8h36.637    c1.075,2.452,1.682,5.155,1.682,8C90,473.028,81.028,482,70,482z M60,413.006V343h20v70.006C76.768,412.347,73.424,412,70,412    S63.232,412.347,60,413.006z M402,374H110v-31h292V374z M442,482c-11.028,0-20-8.972-20-20c0-2.845,0.606-5.548,1.682-8h36.637    c1.075,2.452,1.682,5.155,1.682,8C462,473.028,453.028,482,442,482z M432,413.006V343h20v70.006    c-3.232-0.659-6.576-1.006-10-1.006S435.232,412.347,432,413.006z M30,313V30h452v283H30z" data-original="#000000" class="active-path" data-old_color="#000000" fill="#FFFFFF"/>
	</g>
</g><g>
	<g>
		<path d="M50,50v203h54h90h122.845h104.311H462V50H50z M131,80h250v5c0,8.271-6.729,15-15,15H146c-8.271,0-15-6.729-15-15V80z     M164,223h-30v-34h30V223z M361.155,223L369,203.389L376.845,223H361.155z M432,223h-22.845l-20-50H383v-35h-30v35h-4.155l-20,50    H194v-64h-90v64H80V80h21v5c0,24.813,20.187,45,45,45h220c24.813,0,45-20.187,45-45v-5h21V223z" data-original="#000000" class="active-path" data-old_color="#000000" fill="#FFFFFF"/>
	</g>
</g><g>
	<g>
		<path d="M211.425,184.635l21.15,21.275c12.916-12.84,33.934-12.84,46.85,0l21.15-21.275    C275.996,160.201,236.004,160.201,211.425,184.635z" data-original="#000000" class="active-path" data-old_color="#000000" fill="#FFFFFF"/>
	</g>
</g></g> </svg>
