<?xml version="1.0"?>
<svg xmlns="http://www.w3.org/2000/svg" id="Layer_3" enable-background="new 0 0 64 64" height="512px" viewBox="0 0 64 64" width="512px"><g><g><path d="m58 30.451v-12.451c0-.552-.447-1-1-1h-2v-12c0-2.206-1.794-4-4-4h-26c-2.206 0-4 1.794-4 4v3h-3c-3.859 0-7 3.14-7 7v1.08c-3.386.488-6 3.401-6 6.92v17h-1c-.553 0-1 .448-1 1v3h-1c-.553 0-1 .448-1 1v4c0 .552.447 1 1 1h43v2h-6.5c-1.93 0-3.5 1.57-3.5 3.5 0 .827-.673 1.5-1.5 1.5h-2.5c-1.654 0-3 1.346-3 3s1.346 3 3 3h17 12c1.654 0 3-1.346 3-3v-20.169c0-3.753-1.902-7.295-5-9.38zm2.796 7.549h-13.592c.516-2.531 2.059-4.791 4.31-6.143.301-.18.486-.506.486-.857v-2h4v2c0 .351.185.677.485.857 2.252 1.352 3.795 3.612 4.311 6.143zm-13.796 2h14v15h-14zm5-17h4v4h-4zm4-2h-4v-2h4zm-33-16c0-1.103.897-2 2-2h26c1.103 0 2 .897 2 2v12h-2c-.553 0-1 .448-1 1v12.451c-3.098 2.084-5 5.626-5 9.38v4.169h-4v-3c0-.552-.447-1-1-1h-1v-17c0-3.519-2.614-6.432-6-6.92v-1.08c0-3.86-3.141-7-7-7h-3zm9 13c2.414 0 4.434 1.721 4.899 4h-9.798c.465-2.279 2.485-4 4.899-4zm-5 6h10v4h-10zm0 6h10v4h-10zm0 6h10v4h-10zm12 6v2h-14v-2zm-21-32h8c2.757 0 5 2.243 5 5v1.08c-3.386.488-6 3.401-6 6.92v17h-1c-.553 0-1 .448-1 1v3h-2v-3c0-.552-.447-1-1-1h-1v-17c0-3.519-2.614-6.432-6-6.92v-1.08c0-2.757 2.243-5 5-5zm-1 14v4h-10v-4zm0 6v4h-10v-4zm-5-12c2.414 0 4.434 1.721 4.899 4h-9.798c.465-2.279 2.485-4 4.899-4zm-5 18h10v4h-10zm-2 6h14v2h-14zm-2 6v-2h42v2zm27 12c0-.551.448-1 1-1h2.5c1.93 0 3.5-1.57 3.5-3.5 0-.827.673-1.5 1.5-1.5h6.5v6c0 .352.072.686.184 1h-14.184c-.552 0-1-.449-1-1zm30 1h-12c-.552 0-1-.449-1-1v-3h14v3c0 .551-.448 1-1 1z" data-original="#000000" class="active-path" data-old_color="#000000" fill="#FFFFFF"/><path d="m58 42h-8c-.553 0-1 .448-1 1v9c0 .552.447 1 1 1h8c.553 0 1-.448 1-1v-9c0-.552-.447-1-1-1zm-1 9h-6v-7h6z" data-original="#000000" class="active-path" data-old_color="#000000" fill="#FFFFFF"/></g></g> </svg>
