<?xml version="1.0"?>
<svg xmlns="http://www.w3.org/2000/svg" enable-background="new 0 0 60 60" height="512px" viewBox="0 0 60 60" width="512px"><g><path d="m57.002 60h-54.004c-1.653 0-2.998-1.345-2.998-2.998v-54.004c0-1.653 1.345-2.998 2.998-2.998h54.004c1.653 0 2.998 1.345 2.998 2.998v54.004c0 1.653-1.345 2.998-2.998 2.998zm-54.004-58c-.55 0-.998.447-.998.998v54.004c0 .551.448.998.998.998h54.004c.55 0 .998-.447.998-.998v-54.004c0-.551-.448-.998-.998-.998z" data-original="#000000" class="active-path" data-old_color="#000000" fill="#FFFFFF"/><path d="m55 40h-50c-.552 0-1-.447-1-1v-34c0-.553.448-1 1-1h50c.552 0 1 .447 1 1v34c0 .553-.448 1-1 1zm-49-2h48v-32h-48z" data-original="#000000" class="active-path" data-old_color="#000000" fill="#FFFFFF"/><path d="m11 56c-3.86 0-7-3.141-7-7s3.14-7 7-7 7 3.141 7 7-3.14 7-7 7zm0-12c-2.757 0-5 2.243-5 5s2.243 5 5 5 5-2.243 5-5-2.243-5-5-5z" data-original="#000000" class="active-path" data-old_color="#000000" fill="#FFFFFF"/><path d="m11 52c-.552 0-1-.447-1-1v-3c0-.553.448-1 1-1s1 .447 1 1v3c0 .553-.448 1-1 1z" data-original="#000000" class="active-path" data-old_color="#000000" fill="#FFFFFF"/><path d="m11 56c-2.956 0-5.606-1.875-6.594-4.666-.108-.307-.062-.646.126-.911s.492-.423.817-.423h11.303c.325 0 .629.157.817.423s.234.604.126.911c-.989 2.791-3.639 4.666-6.595 4.666zm-3.993-4c.928 1.234 2.398 2 3.993 2s3.065-.766 3.993-2z" data-original="#000000" class="active-path" data-old_color="#000000" fill="#FFFFFF"/><path d="m49 56c-3.86 0-7-3.141-7-7s3.14-7 7-7 7 3.141 7 7-3.14 7-7 7zm0-12c-2.757 0-5 2.243-5 5s2.243 5 5 5 5-2.243 5-5-2.243-5-5-5z" data-original="#000000" class="active-path" data-old_color="#000000" fill="#FFFFFF"/><path d="m50 50h-3c-.552 0-1-.447-1-1s.448-1 1-1h3c.552 0 1 .447 1 1s-.448 1-1 1z" data-original="#000000" class="active-path" data-old_color="#000000" fill="#FFFFFF"/><path d="m47 55.651c-.112 0-.225-.019-.333-.058-2.792-.987-4.667-3.637-4.667-6.593 0-2.955 1.875-5.604 4.666-6.594.307-.11.646-.062.911.126s.423.491.423.817v11.303c0 .324-.158.629-.423.816-.171.121-.373.183-.577.183zm-1-10.644c-1.235.929-2 2.398-2 3.993s.765 3.065 2 3.993z" data-original="#000000" class="active-path" data-old_color="#000000" fill="#FFFFFF"/><path d="m28 32c-.419 0-.793-.261-.938-.654l-6.056-16.437-3.066 8.433c-.144.395-.52.658-.94.658h-8c-.552 0-1-.447-1-1s.448-1 1-1h7.3l3.761-10.342c.143-.395.504-.643.939-.658.419 0 .793.261.938.654l6.062 16.453 6.062-16.453c.145-.393.519-.654.938-.654h.002c.42.001.794.264.938.658l4 11 1.24 3.099 1.963-3.271c.18-.301.506-.486.857-.486h7c.552 0 1 .447 1 1s-.448 1-1 1h-6.434l-2.709 4.515c-.195.326-.552.512-.938.482-.378-.03-.708-.272-.849-.626l-2-5-3.077-8.462-6.056 16.437c-.144.393-.518.654-.937.654z" data-original="#000000" class="active-path" data-old_color="#000000" fill="#FFFFFF"/><path d="m35 52h-12c-.552 0-1-.447-1-1v-4c0-.553.448-1 1-1h12c.552 0 1 .447 1 1v4c0 .553-.448 1-1 1zm-11-2h10v-2h-10z" data-original="#000000" class="active-path" data-old_color="#000000" fill="#FFFFFF"/><path d="m35 44h-12c-.552 0-1-.447-1-1s.448-1 1-1h12c.552 0 1 .447 1 1s-.448 1-1 1z" data-original="#000000" class="active-path" data-old_color="#000000" fill="#FFFFFF"/><path d="m35 56h-12c-.552 0-1-.447-1-1s.448-1 1-1h12c.552 0 1 .447 1 1s-.448 1-1 1z" data-original="#000000" class="active-path" data-old_color="#000000" fill="#FFFFFF"/></g> </svg>
