<?xml version="1.0" encoding="UTF-8" standalone="no"?>
<svg
   xmlns:dc="http://purl.org/dc/elements/1.1/"
   xmlns:cc="http://creativecommons.org/ns#"
   xmlns:rdf="http://www.w3.org/1999/02/22-rdf-syntax-ns#"
   xmlns:svg="http://www.w3.org/2000/svg"
   xmlns="http://www.w3.org/2000/svg"
   xmlns:sodipodi="http://sodipodi.sourceforge.net/DTD/sodipodi-0.dtd"
   xmlns:inkscape="http://www.inkscape.org/namespaces/inkscape"
   id="Capa_1"
   enable-background="new 0 0 512 512"
   height="512"
   viewBox="0 0 512 512"
   width="512"
   version="1.1"
   sodipodi:docname="hcqs-w.svg"
   inkscape:version="0.92.4 (5da689c313, 2019-01-14)">
  <metadata
     id="metadata843">
    <rdf:RDF>
      <cc:Work
         rdf:about="">
        <dc:format>image/svg+xml</dc:format>
        <dc:type
           rdf:resource="http://purl.org/dc/dcmitype/StillImage" />
        <dc:title></dc:title>
      </cc:Work>
    </rdf:RDF>
  </metadata>
  <defs
     id="defs841" />
  <sodipodi:namedview
     pagecolor="#ffffff"
     bordercolor="#666666"
     borderopacity="1"
     objecttolerance="10"
     gridtolerance="10"
     guidetolerance="10"
     inkscape:pageopacity="0"
     inkscape:pageshadow="2"
     inkscape:window-width="1600"
     inkscape:window-height="837"
     id="namedview839"
     showgrid="false"
     inkscape:zoom="0.91"
     inkscape:cx="256"
     inkscape:cy="256"
     inkscape:window-x="-8"
     inkscape:window-y="-8"
     inkscape:window-maximized="1"
     inkscape:current-layer="Capa_1" />
  <g
     id="g836"
     style="fill:#ffffff">
    <path
       d="m330.718 196.357c44.842-44.841 44.842-117.804 0-162.646-44.944-44.945-117.696-44.951-162.646 0l-134.36 134.36c-44.945 44.944-44.951 117.696 0 162.646 44.944 44.945 117.696 44.951 162.646 0zm-141.432-141.432c33.221-33.22 86.992-33.224 120.217 0 33.219 33.22 33.224 86.991 0 120.217l-56.573 56.573-120.217-120.217zm-14.143 254.578c-33.22 33.219-86.991 33.224-120.217 0-33.219-33.22-33.224-86.992 0-120.217l56.573-56.573 120.217 120.217z"
       id="path830"
       style="fill:#ffffff" />
    <path
       d="m472.52 281.587c-52.641-52.641-138.292-52.641-190.933 0-52.64 52.64-52.64 138.293 0 190.933 52.638 52.638 138.291 52.642 190.933 0 52.64-52.64 52.64-138.293 0-190.933zm-21.215 169.719c-40.942 40.941-107.562 40.941-148.504 0-40.942-40.943-40.942-107.561 0-148.504 40.937-40.936 107.556-40.948 148.504 0 40.942 40.942 40.942 107.561 0 148.504z"
       id="path832"
       style="fill:#ffffff" />
    <path
       d="m413.03 319.862-93.344 93.344c-5.858 5.858-5.858 15.356 0 21.214 5.857 5.858 15.356 5.859 21.214 0l93.344-93.344c5.858-5.858 5.858-15.356 0-21.214-5.857-5.859-15.356-5.859-21.214 0z"
       id="path834"
       style="fill:#ffffff" />
  </g>
  <g
     aria-label="HCQS 200Mg"
     style="font-style:normal;font-weight:normal;font-size:40px;line-height:1.25;font-family:sans-serif;letter-spacing:0px;word-spacing:0px;fill:#ffffff;fill-opacity:1;stroke:none"
     id="text847">
    <path
       d="M 53.657428,467.54492 H 50.82149 v -10.4414 H 40.179563 v 10.4414 H 37.343625 V 446.2181 h 2.835938 v 8.36458 H 50.82149 v -8.36458 h 2.835938 z"
       style="font-size:29.33333397px;fill:#ffffff"
       id="path849" />
    <path
       d="m 75.872273,465.99805 q -0.787761,0.34375 -1.432292,0.64453 -0.630208,0.30078 -1.661458,0.63021 -0.873698,0.27213 -1.904948,0.45833 -1.016927,0.20052 -2.248698,0.20052 -2.320313,0 -4.225261,-0.64453 -1.890625,-0.65885 -3.29427,-2.04818 -1.375001,-1.36067 -2.148438,-3.45182 -0.773438,-2.10547 -0.773438,-4.88412 0,-2.63541 0.744792,-4.71224 0.744792,-2.07682 2.148438,-3.50911 1.360677,-1.38932 3.279948,-2.11979 1.933593,-0.73047 4.282552,-0.73047 1.71875,0 3.423177,0.41536 1.71875,0.41537 3.809896,1.46094 v 3.36589 h -0.214844 q -1.761719,-1.47526 -3.494792,-2.14844 -1.733073,-0.67318 -3.709635,-0.67318 -1.61849,0 -2.921875,0.52995 -1.289063,0.51563 -2.30599,1.61849 -0.988281,1.07422 -1.546875,2.72135 -0.544271,1.63282 -0.544271,3.78125 0,2.2487 0.601563,3.86719 0.615885,1.61849 1.575521,2.63542 1.002604,1.05989 2.334635,1.57552 1.346354,0.5013 2.835938,0.5013 2.048177,0 3.838542,-0.70182 1.790364,-0.70182 3.351562,-2.10547 h 0.200521 z"
       style="font-size:29.33333397px;fill:#ffffff"
       id="path851" />
    <path
       d="m 98.93217,472.77279 q -0.859375,0.21484 -1.704427,0.30078 -0.830729,0.10026 -1.704427,0.10026 -2.492188,0 -4.010417,-1.375 -1.503906,-1.36068 -1.632812,-3.91016 -0.34375,0.0573 -0.673178,0.0716 -0.315104,0.0286 -0.615885,0.0286 -2.248698,0 -4.096354,-0.74479 -1.833334,-0.74479 -3.122396,-2.16276 -1.289063,-1.41797 -1.990886,-3.48047 -0.6875,-2.0625 -0.6875,-4.71224 0,-2.60677 0.6875,-4.66927 0.6875,-2.07682 2.005209,-3.55208 1.260416,-1.40365 3.122396,-2.14844 1.876302,-0.74479 4.082031,-0.74479 2.291667,0 4.110677,0.75911 1.833334,0.74479 3.108073,2.13412 1.303386,1.43229 1.990886,3.50911 0.701823,2.07682 0.701823,4.71224 0,3.91016 -1.604167,6.58854 -1.589844,2.67839 -4.282552,3.75261 0.05729,1.63281 0.773437,2.53515 0.716146,0.90235 2.606771,0.90235 0.58724,0 1.389323,-0.1862 0.816406,-0.17188 1.160156,-0.3151 h 0.386719 z m -3.380208,-15.88412 q 0,-4.15364 -1.86198,-6.40234 -1.861979,-2.26302 -5.084635,-2.26302 -3.251302,0 -5.113281,2.26302 -1.847657,2.2487 -1.847657,6.40234 0,4.19662 1.890625,6.43099 1.890625,2.22005 5.070313,2.22005 3.179687,0 5.05599,-2.22005 1.890625,-2.23437 1.890625,-6.43099 z"
       style="font-size:29.33333397px;fill:#ffffff"
       id="path853" />
    <path
       d="m 118.49727,461.45768 q 0,1.2461 -0.58724,2.46354 -0.57291,1.21745 -1.61849,2.0625 -1.14583,0.91667 -2.67838,1.4323 -1.51823,0.51562 -3.66667,0.51562 -2.30599,0 -4.15365,-0.42969 -1.83333,-0.42968 -3.73828,-1.27474 v -3.55208 h 0.20052 q 1.61849,1.34635 3.73829,2.07682 2.11979,0.73047 3.98177,0.73047 2.63541,0 4.09635,-0.98828 1.47526,-0.98828 1.47526,-2.63542 0,-1.41796 -0.70182,-2.09114 -0.6875,-0.67318 -2.10547,-1.04557 -1.07422,-0.28646 -2.33464,-0.47266 -1.24609,-0.1862 -2.64974,-0.47266 -2.83593,-0.60156 -4.21093,-2.04817 -1.36068,-1.46094 -1.36068,-3.79558 0,-2.67838 2.26302,-4.38281 2.26302,-1.71875 5.74349,-1.71875 2.2487,0 4.125,0.42969 1.8763,0.42968 3.32292,1.05989 v 3.35157 h -0.20052 q -1.21745,-1.03125 -3.20834,-1.70443 -1.97656,-0.6875 -4.05338,-0.6875 -2.27735,0 -3.66667,0.94531 -1.375,0.94531 -1.375,2.4349 0,1.33203 0.6875,2.09114 0.6875,0.75912 2.42057,1.16016 0.91667,0.20052 2.60677,0.48698 1.69011,0.28646 2.86459,0.58724 2.3776,0.63021 3.58073,1.90495 1.20312,1.27474 1.20312,3.5664 z"
       style="font-size:29.33333397px;fill:#ffffff"
       id="path855" />
    <path
       d="m 147.24337,467.54492 h -14.4375 v -2.99349 q 1.5039,-1.28906 3.00781,-2.57812 1.51823,-1.28907 2.82161,-2.5638 2.75,-2.66407 3.76693,-4.22527 1.01693,-1.57552 1.01693,-3.39453 0,-1.66146 -1.10287,-2.59244 -1.08854,-0.94532 -3.05078,-0.94532 -1.30338,0 -2.82161,0.45834 -1.51823,0.45833 -2.96485,1.40364 h -0.14322 v -3.00781 q 1.01692,-0.5013 2.70703,-0.91667 1.70442,-0.41536 3.29427,-0.41536 3.27995,0 5.14192,1.58984 1.86198,1.57552 1.86198,4.28255 0,1.21745 -0.3151,2.27735 -0.30078,1.04557 -0.90234,1.99088 -0.5586,0.88802 -1.31771,1.7474 -0.74479,0.85937 -1.81901,1.90495 -1.53255,1.5039 -3.16537,2.92187 -1.63281,1.40365 -3.05078,2.60677 h 11.47266 z"
       style="font-size:29.33333397px;fill:#ffffff"
       id="path857" />
    <path
       d="m 165.89181,456.87435 q 0,5.74349 -1.80469,8.4362 -1.79036,2.67838 -5.57161,2.67838 -3.83855,0 -5.61459,-2.72135 -1.76172,-2.72136 -1.76172,-8.36459 0,-5.68619 1.79037,-8.39322 1.79036,-2.72136 5.58594,-2.72136 3.83854,0 5.60026,2.76432 1.77604,2.75 1.77604,8.32162 z m -3.76693,6.5026 q 0.5013,-1.16015 0.67318,-2.72135 0.1862,-1.57552 0.1862,-3.78125 0,-2.17708 -0.1862,-3.78125 -0.17188,-1.60417 -0.6875,-2.72136 -0.5013,-1.10286 -1.375,-1.66145 -0.85938,-0.5586 -2.22005,-0.5586 -1.34636,0 -2.23438,0.5586 -0.8737,0.55859 -1.38932,1.6901 -0.48698,1.0599 -0.67318,2.76432 -0.17187,1.70443 -0.17187,3.73828 0,2.23438 0.15755,3.73829 0.15755,1.5039 0.67317,2.6927 0.47266,1.11719 1.33204,1.70443 0.87369,0.58724 2.30599,0.58724 1.34635,0 2.23437,-0.55859 0.88802,-0.5586 1.375,-1.69011 z"
       style="font-size:29.33333397px;fill:#ffffff"
       id="path859" />
    <path
       d="m 184.56889,456.87435 q 0,5.74349 -1.80469,8.4362 -1.79037,2.67838 -5.57162,2.67838 -3.83854,0 -5.61458,-2.72135 -1.76172,-2.72136 -1.76172,-8.36459 0,-5.68619 1.79037,-8.39322 1.79036,-2.72136 5.58593,-2.72136 3.83855,0 5.60026,2.76432 1.77605,2.75 1.77605,8.32162 z m -3.76693,6.5026 q 0.5013,-1.16015 0.67318,-2.72135 0.18619,-1.57552 0.18619,-3.78125 0,-2.17708 -0.18619,-3.78125 -0.17188,-1.60417 -0.6875,-2.72136 -0.50131,-1.10286 -1.375,-1.66145 -0.85938,-0.5586 -2.22006,-0.5586 -1.34635,0 -2.23437,0.5586 -0.8737,0.55859 -1.38932,1.6901 -0.48698,1.0599 -0.67318,2.76432 -0.17188,1.70443 -0.17188,3.73828 0,2.23438 0.15756,3.73829 0.15755,1.5039 0.67317,2.6927 0.47266,1.11719 1.33203,1.70443 0.8737,0.58724 2.30599,0.58724 1.34636,0 2.23438,-0.55859 0.88802,-0.5586 1.375,-1.69011 z"
       style="font-size:29.33333397px;fill:#ffffff"
       id="path861" />
    <path
       d="m 208.38791,467.54492 h -2.83594 v -18.3763 l -5.92969,12.50391 h -1.6901 l -5.88672,-12.50391 v 18.3763 h -2.64974 V 446.2181 h 3.86719 l 5.68619,11.8737 5.5,-11.8737 h 3.93881 z"
       style="font-size:29.33333397px;fill:#ffffff"
       id="path863" />
    <path
       d="m 226.90744,465.72591 q 0,4.06771 -1.84766,5.97266 -1.84765,1.90495 -5.6862,1.90495 -1.27474,0 -2.49218,-0.1862 -1.20313,-0.17188 -2.37761,-0.5013 v -2.75 h 0.14323 q 0.65886,0.25781 2.09115,0.6302 1.43229,0.38672 2.86458,0.38672 1.375,0 2.27734,-0.32942 0.90235,-0.32943 1.40365,-0.91667 0.5013,-0.55859 0.71615,-1.34636 0.21484,-0.78776 0.21484,-1.76171 v -1.46094 q -1.21745,0.97396 -2.33464,1.46094 -1.10286,0.47265 -2.82161,0.47265 -2.86458,0 -4.55469,-2.0625 -1.67578,-2.07682 -1.67578,-5.84375 0,-2.0625 0.57292,-3.55208 0.58724,-1.50391 1.58984,-2.59245 0.93099,-1.01693 2.26302,-1.57552 1.33203,-0.57292 2.64974,-0.57292 1.38932,0 2.32031,0.28646 0.94532,0.27214 1.99089,0.84505 l 0.17187,-0.6875 h 2.52084 z m -2.69271,-2.57812 v -8.72266 q -1.07422,-0.48698 -2.00521,-0.6875 -0.91667,-0.21484 -1.83333,-0.21484 -2.22005,0 -3.49479,1.48958 -1.27474,1.48958 -1.27474,4.32552 0,2.69271 0.94531,4.08203 0.94531,1.38932 3.13672,1.38932 1.17448,0 2.34896,-0.44401 1.1888,-0.45833 2.17708,-1.21744 z"
       style="font-size:29.33333397px;fill:#ffffff"
       id="path865" />
  </g>
</svg>
