<?xml version="1.0"?>
<svg xmlns="http://www.w3.org/2000/svg" xmlns:xlink="http://www.w3.org/1999/xlink" version="1.1" id="Layer_1" x="0px" y="0px" viewBox="0 0 496 496" style="enable-background:new 0 0 496 496;" xml:space="preserve" width="512px" height="512px" class=""><g><g>
	<path style="fill:#0D0D0D" d="M472,488H344c-8.84,0-16-7.16-16-16V328h160v144C488,480.84,480.84,488,472,488z" data-original="#FFA64D" class="active-path" data-old_color="#FFA64D"/>
	<path style="fill:#0D0D0D" d="M222.464,216h-44.92C154.632,216,136,234.632,136,257.536c0,5.32,1,10.504,2.968,15.432l13.6,34   h7.76C160.12,308.616,160,310.296,160,312c0,22.088,17.912,40,40,40s40-17.912,40-40c0-1.704-0.12-3.384-0.328-5.032h7.76   l13.6-33.992c1.968-4.928,2.968-10.12,2.968-15.44C264,234.632,245.368,216,222.464,216z" data-original="#FFA64D" class="active-path" data-old_color="#FFA64D"/>
</g><g>
	<rect x="408" y="440" style="fill:#333333" width="16" height="16" data-original="#333333" class="" data-old_color="#333333"/>
	<path style="fill:#333333" d="M448,184h32c8.824,0,16-7.176,16-16v-32c0-8.824-7.176-16-16-16h-32c-8.824,0-16,7.176-16,16v8   h-9.136c-1.248-4.8-3.576-9.12-6.72-12.768C439.496,121.68,456,98.744,456,72c0-35.288-28.712-64-64-64   c-23.624,0-44.256,12.904-55.344,32h-37.088C272.888,14.424,237.376,0,200,0C120.6,0,56,64.6,56,144v72   c0,20.168,15.064,36.736,34.504,39.44c6.56,30.88,25.888,57.608,53.496,73.512v8.176l-41.312,6.352   c-36.952,5.688-68.048,32.424-79.112,67.848L0,478.64V496h344h32h96c13.232,0,24-10.768,24-24V248c0-13.232-10.768-24-24-24h-16   v-32h-96v32h-16c-0.28,0-0.544,0.072-0.824,0.08c0.536-2.608,0.824-5.312,0.824-8.08v-43.056c3.216-3.68,5.6-8.072,6.864-12.944   h10.272c3.576,13.76,15.992,24,30.864,24s27.288-10.24,30.864-24H432v8C432,176.824,439.176,184,448,184z M448,136h32l0.008,32H448   V136z M392,24c26.472,0,48,21.528,48,48s-21.528,48-48,48s-48-21.528-48-48S365.528,24,392,24z M311.936,423.008l-15.872,1.984   L302.936,480H224V379.76c17.008-6.52,25.416-19.008,29.136-26.88l41.744,6.424c8.824,1.36,17.232,4.176,25.128,8.232V472   c0,2.816,0.576,5.488,1.472,8h-2.416L311.936,423.008z M160,338.48c4.096,6.168,9.584,11.304,16,15.032v8.472   c-11.112-6.584-15.136-16.48-16-19.144V338.48z M180.824,286.56l3.176-2.4V264h32v20.168l3.176,2.4   C227.328,292.72,232,301.992,232,312c0,17.648-14.352,32-32,32s-32-14.352-32-32C168,301.992,172.672,292.72,180.824,286.56z    M240,338.48v4.376c-0.912,2.76-4.984,12.6-16,19.128v-8.472C230.416,349.784,235.904,344.64,240,338.48z M192,359.28   c2.608,0.44,5.272,0.72,8,0.72s5.392-0.28,8-0.72V480h-16V359.28z M320,349.936c-7.264-3.008-14.832-5.232-22.688-6.44L256,337.136   v-8.176c27.608-15.912,46.936-42.64,53.496-73.52c3.672-0.512,7.216-1.392,10.504-2.832V349.936z M320,168c-8.824,0-16-7.176-16-16   s7.176-16,16-16s16,7.176,16,16S328.824,168,320,168z M328,182.864v1.344c-0.408-0.312-0.76-0.68-1.176-0.976   C327.232,183.144,327.6,182.968,328,182.864z M344,131.056v-16.864c6.496,7.376,14.624,13.264,23.856,17.048   c-3.144,3.64-5.472,7.96-6.72,12.76h-10.272C349.6,139.128,347.216,134.744,344,131.056z M328,56v65.136   c-2.576-0.672-5.224-1.136-8-1.136s-5.424,0.464-8,1.136V56H328z M200,16c36.888,0,71.664,15.888,96,43.52v71.536   c-2.864,3.28-5.032,7.128-6.376,11.376c-18.496-11.84-30.976-23.8-34.04-32.96L253.768,104H235.72l-2.376,3.56   C204.096,151.432,97.08,152,96,152h-8v24.808c-5.944,1.216-11.328,3.856-16,7.392V144C72,73.424,129.424,16,200,16z M72,216   c0-10.416,6.712-19.216,16-22.528V232c0,2.216,0.12,4.408,0.248,6.6C78.824,235.36,72,226.504,72,216z M104,232v-5.392   l37.48,10.712c2.944-5.224,6.904-9.768,11.728-13.288L104,209.968v-42.144c26.048-0.976,107.368-7.184,139.296-46.816   c8.736,15.744,28.928,30.024,46.184,40.096c1.328,4.432,3.552,8.44,6.52,11.84v37.024l-49.208,14.064   c4.832,3.512,8.784,8.056,11.728,13.288L296,226.608V232c0,34.776-18.576,66.232-48.16,83.208c0.072-1.064,0.16-2.128,0.16-3.208   c0-13.704-5.784-26.464-16-35.592V224h-16v24h-32v-24h-16v52.408c-10.216,9.136-16,21.888-16,35.592c0,1.08,0.088,2.136,0.16,3.2   C122.576,298.224,104,266.776,104,232z M38.76,416.376c9.352-29.896,35.4-52.304,66.368-57.072l41.744-6.424   c3.72,7.872,12.128,20.36,29.136,26.88V480H97.072l6.872-55.008l-15.872-1.984L80.936,480H16.48L38.76,416.376z M472,480h-96h-32   c-4.416,0-8-3.584-8-8V296h144v16h-72v16h72v16h-40v16h40v16h-72v16h72v16h-40v16h40v16h-40v16h40v16   C480,476.416,476.416,480,472,480z M376,208h64v16h-64V208z M472,240c4.416,0,8,3.592,8,8v32H336v-32c0-4.408,3.584-8,8-8H472z    M311.752,238.6c0.128-2.192,0.248-4.384,0.248-6.6v-38.528c9.288,3.312,16,12.112,16,22.528   C328,226.504,321.176,235.36,311.752,238.6z M392,168c-8.824,0-16-7.176-16-16s7.176-16,16-16s16,7.176,16,16S400.824,168,392,168z   " data-original="#333333" class="" data-old_color="#333333"/>
	<polygon style="fill:#333333" points="416,64 400,64 400,48 384,48 384,80 416,80  " data-original="#333333" class="" data-old_color="#333333"/>
	<path style="fill:#333333" d="M168,188c0-11.024-8.968-20-20-20s-20,8.976-20,20s8.968,20,20,20S168,199.024,168,188z M148,192   c-2.2,0-4-1.792-4-4s1.8-4,4-4s4,1.792,4,4S150.2,192,148,192z" data-original="#333333" class="" data-old_color="#333333"/>
	<path style="fill:#333333" d="M252,208c11.032,0,20-8.976,20-20s-8.968-20-20-20s-20,8.976-20,20S240.968,208,252,208z M252,184   c2.2,0,4,1.792,4,4s-1.8,4-4,4s-4-1.792-4-4S249.8,184,252,184z" data-original="#333333" class="" data-old_color="#333333"/>
</g></g> </svg>
