<?xml version="1.0"?>
<svg xmlns="http://www.w3.org/2000/svg" viewBox="0 0 64 64" width="512px" height="512px"><g><g id="outline"><path d="M18,38a3,3,0,0,0-3,3v2a3,3,0,0,0,6,0V41A3,3,0,0,0,18,38Zm1,5a1,1,0,0,1-2,0V41a1,1,0,0,1,2,0Z" data-original="#000000" class="active-path" fill="#000000"/><path d="M29,44H25.667L28.6,41.8A1,1,0,0,0,29,41V39a1,1,0,0,0-1-1H24a1,1,0,0,0-1,1v2h2V40h2v.5l-3.6,2.7a1,1,0,0,0-.4.8v1a1,1,0,0,0,1,1h5Z" data-original="#000000" class="active-path" fill="#000000"/><path d="M29,56H26v2h4a1,1,0,0,0,1-1V51H29Z" data-original="#000000" class="active-path" fill="#000000"/><rect x="22" y="56" width="2" height="2" data-original="#000000" class="active-path" fill="#000000"/><path d="M49,25a8,8,0,0,0-1,15.931V45a1,1,0,0,1-1,1H40a1,1,0,0,1-1-1V11a3,3,0,0,0-3-3H29V7a1,1,0,0,0-1-1H25V3a1,1,0,0,0-1-1H20a1,1,0,0,0-1,1V6H17V5a1,1,0,0,0-1-1H12a1,1,0,0,0-1,1v8a1,1,0,0,0,1,1h4a1,1,0,0,0,1-1V12h2v4.051A11.01,11.01,0,0,0,9,27V57a5.006,5.006,0,0,0,5,5H30a5.006,5.006,0,0,0,5-5V27A11.01,11.01,0,0,0,25,16.051V12h3a1,1,0,0,0,1-1V10h7a1,1,0,0,1,1,1V45a3,3,0,0,0,3,3h7a3,3,0,0,0,3-3V40.931A8,8,0,0,0,49,25ZM21,4h2V6H21Zm-6,8H13V6h2ZM33,30v4H11V30ZM30,60H14a3,3,0,0,1-3-3V36H33V57A3,3,0,0,1,30,60Zm3-33v1H31V27a7.008,7.008,0,0,0-7-7H23v2h1a5.006,5.006,0,0,1,5,5v1H11V27a9.01,9.01,0,0,1,9-9h4A9.01,9.01,0,0,1,33,27ZM23,16H21V12h2Zm4-6H17V8H27ZM49,39a6,6,0,1,1,6-6A6.006,6.006,0,0,1,49,39Z" data-original="#000000" class="active-path" fill="#000000"/><path d="M49,30a2.951,2.951,0,0,0-1.285.3l-1.008-1.008-1.414,1.414L46.3,31.715A2.951,2.951,0,0,0,46,33a3,3,0,1,0,3-3Zm0,4a1,1,0,1,1,1-1A1,1,0,0,1,49,34Z" data-original="#000000" class="active-path" fill="#000000"/></g></g> </svg>
