<?xml version="1.0"?>
<svg xmlns="http://www.w3.org/2000/svg" height="512px" viewBox="0 0 496 496" width="512px"><g><path d="m488.585938 140.199219-32.585938-39.09375v-53.105469h-16v-48h-96v16h-72v-16h-48v21.808594c-11.734375-13.335938-28.878906-21.808594-48-21.808594-26.863281 0-49.871094 16.65625-59.351562 40.167969-55.792969 1.792969-100.648438 47.617187-100.648438 103.832031v136h-16v72c0 22.054688 17.945312 40 40 40s40-17.945312 40-40v-72h-16v-136c0-29.792969 23.398438-54.152344 52.769531-55.839844 9.558594 23.34375 32.496094 39.839844 59.230469 39.839844 19.121094 0 36.265625-8.472656 48-21.808594v21.808594h48v-16h46.921875l-23.507813 28.199219c-4.78125 5.746093-7.414062 13.015625-7.414062 20.488281v295.3125c0 22.054688 17.945312 40 40 40h128c22.054688 0 40-17.945312 40-40v-295.3125c0-7.472656-2.632812-14.742188-7.414062-20.488281zm-8.648438 19.800781c.015625.230469.0625.457031.0625.6875v255.3125h-176v-255.3125c0-.230469.046875-.457031.0625-.6875h127.9375v-16h-118.921875l26.664063-32h104.503906l26.664062 32h-22.910156v16zm-31.9375 320h-16v-48h16zm-112-48h16v48h-16zm32 0h48v48h-48zm72-368v32h-96v-32zm-16-48v32h-64v-32zm-360 280v16h-48v-16zm-16 48v-16h16v16zm-32 0v-16h16v16zm24 32c-10.414062 0-19.214844-6.710938-22.527344-16h45.046875c-3.304687 9.289062-12.105469 16-22.519531 16zm8-232v136h-16v-136c0-45.992188 35.480469-83.792969 80.496094-87.625-.296875 2.503906-.496094 5.039062-.496094 7.625 0 2.847656.246094 5.632812.617188 8.375-36.25 3.714844-64.617188 34.417969-64.617188 71.625zm136-32.71875v-23.28125h-16v23.28125c-20.054688-3.386719-35.886719-19.226562-39.28125-39.28125h23.28125v-16h-23.28125c3.386719-20.054688 19.226562-35.886719 39.28125-39.28125v23.28125h16v-23.28125c20.054688 3.386719 35.886719 19.226562 39.28125 39.28125h-23.28125v16h23.28125c-3.394531 20.054688-19.226562 35.886719-39.28125 39.28125zm72 .71875h-16v-96h16zm16-80h72v16h-16v48h-56zm32 424v-24h16v46.527344c-9.289062-3.3125-16-12.113282-16-22.527344zm160 22.527344v-46.527344h16v24c0 10.414062-6.710938 19.214844-16 22.527344zm0 0" data-original="#000000" class="active-path" data-old_color="#000000" fill="#FFFFFF"/></g> </svg>
