<?xml version="1.0" encoding="UTF-8" standalone="no"?>
<!-- Created with Inkscape (http://www.inkscape.org/) -->

<svg
   xmlns:dc="http://purl.org/dc/elements/1.1/"
   xmlns:cc="http://creativecommons.org/ns#"
   xmlns:rdf="http://www.w3.org/1999/02/22-rdf-syntax-ns#"
   xmlns:svg="http://www.w3.org/2000/svg"
   xmlns="http://www.w3.org/2000/svg"
   xmlns:sodipodi="http://sodipodi.sourceforge.net/DTD/sodipodi-0.dtd"
   xmlns:inkscape="http://www.inkscape.org/namespaces/inkscape"
   width="64"
   height="64"
   viewBox="0 0 16.933333 16.933334"
   version="1.1"
   id="svg950"
   inkscape:version="0.92.4 (5da689c313, 2019-01-14)"
   sodipodi:docname="active.svg">
  <defs
     id="defs944" />
  <sodipodi:namedview
     id="base"
     pagecolor="#ffffff"
     bordercolor="#666666"
     borderopacity="1.0"
     inkscape:pageopacity="0.0"
     inkscape:pageshadow="2"
     inkscape:zoom="2.8"
     inkscape:cx="130.38355"
     inkscape:cy="25.028242"
     inkscape:document-units="mm"
     inkscape:current-layer="layer1"
     showgrid="false"
     units="px"
     inkscape:window-width="1600"
     inkscape:window-height="837"
     inkscape:window-x="-8"
     inkscape:window-y="-8"
     inkscape:window-maximized="1" />
  <metadata
     id="metadata947">
    <rdf:RDF>
      <cc:Work
         rdf:about="">
        <dc:format>image/svg+xml</dc:format>
        <dc:type
           rdf:resource="http://purl.org/dc/dcmitype/StillImage" />
        <dc:title></dc:title>
      </cc:Work>
    </rdf:RDF>
  </metadata>
  <g
     inkscape:label="Layer 1"
     inkscape:groupmode="layer"
     id="layer1"
     transform="translate(0,-280.06665)">
    <g
       id="g2755"
       transform="matrix(0.09072581,0,0,0.09072581,-14.646274,278.87102)"
       style="fill:#ffffff">
      <path
         id="path2180"
         d="m 257.57818,30.299988 h -5.64445 v 5.64444 h -5.64444 v 5.64445 h 5.64444 v 5.64444 h 5.64445 v -5.64444 h 5.64444 v -5.64445 h -5.64444 z m 0,0"
         inkscape:connector-curvature="0"
         style="stroke-width:0.35277775;fill:#ffffff" />
      <path
         id="path2182"
         d="m 263.22262,75.455538 v -11.28889 h 5.64445 c 3.11299,0 5.64444,-2.53145 5.64444,-5.64444 v -2.82222 h 15.42301 l 7.90304,11.85113 10.75835,-29.58648 6.38858,14.91313 h 27.26035 v -5.64445 H 318.7052 l -10.542,-24.59798 -11.81943,32.50241 -3.3886,-5.08221 h -18.44366 v -25.4 c 0,-3.11298 -2.53145,-5.64444 -5.64444,-5.64444 h -28.22223 c -3.11299,0 -5.64444,2.53146 -5.64444,5.64444 v 14.11112 h -24.43813 l -6.39134,14.91312 -10.75559,-29.58648 -7.90305,11.85113 h -18.24522 v 5.64445 h 21.26588 l 3.38584,-5.08221 11.81943,32.50241 10.54476,-24.59798 h 20.71742 v 14.11111 c 0,3.11299 2.53145,5.64444 5.64444,5.64444 h 5.64445 v 11.28889 h 5.64444 v 16.93334 h -14.11111 c -4.79557,0 -9.59528,1.13137 -13.88236,3.27697 l -1.95819,0.97841 c -1.80385,-5.71473 -7.09276,-9.89983 -13.39729,-9.89983 h -10.27327 c -3.18878,0 -6.10195,1.10381 -8.46667,2.89526 v -11.36193 c 0,-4.66741 -3.79925,-8.46666 -8.46666,-8.46666 -4.66742,0 -8.46667,3.79925 -8.46667,8.46666 V 120.6111 c -3.11299,0 -5.64444,2.53145 -5.64444,5.64444 v 5.64445 c 0,3.11298 2.53145,5.64444 5.64444,5.64444 h 8.46667 v 31.07614 c -3.53605,2.66099 -5.64445,6.80337 -5.64445,11.25719 0,7.78041 6.33071,14.11111 14.11111,14.11111 7.78041,0 14.11111,-6.3307 14.11111,-14.11111 0,-4.45106 -2.13044,-8.62789 -5.64444,-11.27511 V 137.54443 H 311.2004 v 31.05822 c -3.514,2.64446 -5.64445,6.82405 -5.64445,11.27511 0,7.78041 6.33071,14.11111 14.11112,14.11111 7.7804,0 14.11111,-6.3307 14.11111,-14.11111 0,-4.45106 -2.13045,-8.62789 -5.64445,-11.27511 v -31.05822 h 8.46667 c 3.11299,0 5.64444,-2.53146 5.64444,-5.64444 v -5.64445 c 0,-3.11299 -2.53145,-5.64444 -5.64444,-5.64444 h -0.14332 C 335.0253,104.81189 321.72172,92.388878 305.55595,92.388878 h -47.97777 v -16.93334 z m -64.91111,16.93334 h 10.27327 c 4.66742,0 8.46667,3.79925 8.46667,8.466662 0,4.66742 -3.79925,8.46667 -8.46667,8.46667 h -10.27327 c -4.66741,0 -8.46667,-3.79925 -8.46667,-8.46667 0,-4.667412 3.79926,-8.466662 8.46667,-8.466662 z m 11.28889,22.577772 c 3.67385,0 6.77857,2.36747 7.94714,5.64445 h -27.18318 c 1.16858,-3.27698 4.2733,-5.64445 7.94715,-5.64445 z m -19.75556,-2.89525 c 0.0317,0.0248 0.0565,0.051 0.0868,0.073 -0.0303,0.022 -0.0551,0.0482 -0.0868,0.073 z M 178.55596,78.277758 c 0,-1.55442 1.26504,-2.82222 2.82222,-2.82222 1.55718,0 2.82222,1.2678 2.82222,2.82222 V 120.6111 h -5.64444 z m 11.28888,110.066672 c -4.66741,0 -8.46666,-3.79925 -8.46666,-8.46667 0,-0.97152 0.22048,-1.89342 0.5333,-2.78226 1.17684,3.25631 4.2733,5.60448 7.93336,5.60448 3.65732,0 6.75377,-2.34542 7.93337,-5.60172 0.31282,0.88883 0.5333,1.81212 0.5333,2.7795 0,4.66742 -3.79925,8.46667 -8.46667,8.46667 z m 2.82223,-14.11111 c 0,1.55442 -1.26504,2.82222 -2.82223,2.82222 -1.55718,0 -2.82222,-1.2678 -2.82222,-2.82222 v -36.68889 h 5.64445 z m 127,14.11111 c -4.66742,0 -8.46667,-3.79925 -8.46667,-8.46667 0,-0.96738 0.22049,-1.89067 0.5333,-2.7795 1.1796,3.2563 4.27605,5.60172 7.93337,5.60172 3.65731,0 6.75376,-2.34542 7.93336,-5.60172 0.31282,0.88883 0.5333,1.81212 0.5333,2.7795 0,4.66742 -3.79925,8.46667 -8.46666,8.46667 z m 2.82222,-14.11111 c 0,1.55442 -1.26504,2.82222 -2.82222,2.82222 -1.55719,0 -2.82223,-1.2678 -2.82223,-2.82222 v -36.68889 h 5.64445 z m 8.29992,-53.62222 h -11.12214 v 5.64444 h 16.93333 v 5.64445 H 172.91151 v -5.64445 h 141.11111 v -5.64444 h -90.59636 c -0.75103,-3.6835 -2.94074,-6.84885 -5.95726,-8.88421 2.70922,-2.21865 4.55993,-5.3964 5.04086,-9.03442 l 3.95635,-1.97749 c 3.50435,-1.752862 7.43038,-2.681662 11.35641,-2.681662 h 67.73333 c 13.05278,0 23.82491,9.897072 25.23326,22.577782 z M 240.64484,24.655538 h 28.22223 l 0.003,33.86667 h -28.22523 z m 16.93334,39.51111 v 5.64445 h -5.64445 v -5.64445 z m 0,0"
         inkscape:connector-curvature="0"
         style="stroke-width:0.35277775;fill:#ffffff" />
    </g>
  </g>
</svg>
