<?xml version="1.0" encoding="UTF-8" standalone="no"?>
<!-- Created with Inkscape (http://www.inkscape.org/) -->

<svg
   xmlns:dc="http://purl.org/dc/elements/1.1/"
   xmlns:cc="http://creativecommons.org/ns#"
   xmlns:rdf="http://www.w3.org/1999/02/22-rdf-syntax-ns#"
   xmlns:svg="http://www.w3.org/2000/svg"
   xmlns="http://www.w3.org/2000/svg"
   xmlns:sodipodi="http://sodipodi.sourceforge.net/DTD/sodipodi-0.dtd"
   xmlns:inkscape="http://www.inkscape.org/namespaces/inkscape"
   width="64"
   height="64"
   viewBox="0 0 16.933333 16.933334"
   version="1.1"
   id="svg5098"
   inkscape:version="0.92.4 (5da689c313, 2019-01-14)"
   sodipodi:docname="home.svg">
  <defs
     id="defs5092" />
  <sodipodi:namedview
     id="base"
     pagecolor="#ffffff"
     bordercolor="#666666"
     borderopacity="1.0"
     inkscape:pageopacity="0.0"
     inkscape:pageshadow="2"
     inkscape:zoom="0.35"
     inkscape:cx="-87.142857"
     inkscape:cy="560"
     inkscape:document-units="mm"
     inkscape:current-layer="layer1"
     showgrid="false"
     units="px"
     inkscape:window-width="1600"
     inkscape:window-height="837"
     inkscape:window-x="-8"
     inkscape:window-y="-8"
     inkscape:window-maximized="1" />
  <metadata
     id="metadata5095">
    <rdf:RDF>
      <cc:Work
         rdf:about="">
        <dc:format>image/svg+xml</dc:format>
        <dc:type
           rdf:resource="http://purl.org/dc/dcmitype/StillImage" />
        <dc:title></dc:title>
      </cc:Work>
    </rdf:RDF>
  </metadata>
  <g
     inkscape:label="Layer 1"
     inkscape:groupmode="layer"
     id="layer1"
     transform="translate(0,-280.06665)">
    <path
       inkscape:connector-curvature="0"
       d="m 16.221095,288.80326 c -0.120954,0.12015 -0.279022,0.1802 -0.437059,0.1802 -0.1594,0 -0.318709,-0.0611 -0.439911,-0.18305 l -0.490264,-0.49352 v 2.25784 c 0,0.34249 -0.277626,0.62012 -0.620117,0.62012 -0.34249,0 -0.620116,-0.27763 -0.620116,-0.62012 v -3.50623 l -4.7162071,-4.74731 c -0.231427,-0.19825 -0.572182,-0.19899 -0.804508,-0.002 l -4.774126,4.7647 c 1.88e-4,0.006 9.03e-4,0.0118 9.03e-4,0.0179 v 6.57324 c 0,0.68387 0.556369,1.24024 1.240234,1.24024 h 7.8134691 c 0.683865,0 1.240235,-0.55637 1.240235,-1.24024 0,-0.34249 0.277626,-0.62011 0.620116,-0.62011 0.342491,0 0.620117,0.27762 0.620117,0.62011 0,1.36773 -1.112738,2.48047 -2.480468,2.48047 H 4.5599199 c -1.367729,0 -2.480467,-1.11274 -2.480467,-2.48047 v -5.35421 l -0.492125,0.49116 c -0.242373,0.24191 -0.63500002,0.24154 -0.87696902,-8.2e-4 -0.241939,-0.2424 -0.241536,-0.63503 8.67e-4,-0.877 0,0 6.53708602,-6.52375 6.54589202,-6.5316 0.708236,-0.63053 1.774372,-0.62824 2.47991,0.005 0.0087,0.008 6.4869181,6.52825 6.4869181,6.52825 0.241412,0.24296 0.240109,0.63559 -0.0028,0.87697 z m -9.5219571,1.96286 c -0.314586,-0.38482 -0.503659,-0.87598 -0.503659,-1.41062 0,-1.23096 1.001458,-2.23242 2.232421,-2.23242 1.230963,0 2.2324211,1.00146 2.2324211,2.23242 0,0.53755 -0.191028,1.03129 -0.508682,1.417 0.450143,0.21531 0.863946,0.51408 1.215088,0.8855 0.235272,0.24885 0.224265,0.64135 -0.02459,0.87663 -0.119838,0.11329 -0.273068,0.16951 -0.425896,0.16951 -0.164579,0 -0.328786,-0.0651 -0.450732,-0.1941 -0.5275341,-0.55798 -1.2863401,-0.89111 -2.0298601,-0.89111 -0.773224,0 -1.513085,0.3135 -2.029859,0.8601 -0.235273,0.24883 -0.627714,0.25993 -0.876629,0.0246 -0.248853,-0.23527 -0.25986,-0.62777 -0.02459,-0.87663 0.34094,-0.3606 0.747768,-0.65103 1.194562,-0.86087 z m 0.736575,-1.41062 c 0,0.5471 0.445089,0.99219 0.992187,0.99219 0.547098,0 0.992187,-0.44509 0.992187,-0.99219 0,-0.54709 -0.445089,-0.99218 -0.992187,-0.99218 -0.547098,0 -0.992187,0.44509 -0.992187,0.99218 z"
       id="path5652"
       style="stroke-width:0.03100584;fill:#ffffff" />
  </g>
</svg>
